<svg width="2780" height="1527" xmlns="http://www.w3.org/2000/svg" xmlns:xlink="http://www.w3.org/1999/xlink" xml:space="preserve" overflow="hidden"><g transform="translate(-792 -625)"><rect x="2155.5" y="628.5" width="428" height="266" stroke="#042433" stroke-width="6.875" stroke-miterlimit="8" fill="#D9D9D9"/><text font-family="Aptos,Aptos_MSFontService,sans-serif" font-weight="400" font-size="48" transform="matrix(1 0 0 1 2292.73 714)">Service </text><text font-family="Aptos,Aptos_MSFontService,sans-serif" font-weight="400" font-size="48" transform="matrix(1 0 0 1 2266.67 772)">Discovery</text><text font-family="Aptos,Aptos_MSFontService,sans-serif" font-weight="400" font-size="55" transform="matrix(1 0 0 1 2271.53 836)">Chariott</text><rect x="2648.5" y="628.5" width="427" height="266" stroke="#042433" stroke-width="6.875" stroke-miterlimit="8" fill="#D9D9D9"/><text font-family="Aptos,Aptos_MSFontService,sans-serif" font-weight="400" font-size="48" transform="matrix(1 0 0 1 2742.19 714)">Digital Twin </text><text font-family="Aptos,Aptos_MSFontService,sans-serif" font-weight="400" font-size="48" transform="matrix(1 0 0 1 2785.43 772)">Service</text><text font-family="Aptos,Aptos_MSFontService,sans-serif" font-weight="400" font-size="55" transform="matrix(1 0 0 1 2811.22 836)">Ibeji</text><rect x="1481.5" y="628.5" width="428" height="266" stroke="#042433" stroke-width="6.875" stroke-miterlimit="8" fill="#FFFFFF"/><text font-family="Aptos,Aptos_MSFontService,sans-serif" font-weight="400" font-size="55" transform="matrix(1 0 0 1 1576.68 713)">Insurance </text><text font-family="Aptos,Aptos_MSFontService,sans-serif" font-weight="400" font-size="55" transform="matrix(1 0 0 1 1519.05 779)">Event Detector </text><text font-family="Aptos,Aptos_MSFontService,sans-serif" font-weight="400" font-size="55" transform="matrix(1 0 0 1 1559.66 845)">Application</text><rect x="3141.5" y="628.5" width="427" height="266" stroke="#042433" stroke-width="6.875" stroke-miterlimit="8" fill="#D9D9D9"/><text font-family="Aptos,Aptos_MSFontService,sans-serif" font-weight="400" font-size="55" transform="matrix(1 0 0 1 3204.03 779)">MQTT Broker</text><path d="M1009.5 982.063 2346.99 982.063 2346.99 988.938 1009.5 988.938ZM2342.4 971.75 2369.9 985.5 2342.4 999.25Z" fill="#156082"/><path d="M1009.5 1102.06 2839.69 1102.06 2839.69 1108.94 1009.5 1108.94ZM2835.11 1091.75 2862.61 1105.5 2835.11 1119.25Z" fill="#156082"/><path d="M1009.5 1946.06 3332.4 1946.06 3332.4 1952.94 1009.5 1952.94ZM3327.82 1935.75 3355.32 1949.5 3327.82 1963.25Z" fill="#156082"/><rect x="795.5" y="628.5" width="427" height="266" stroke="#042433" stroke-width="6.875" stroke-miterlimit="8" fill="#FFFFFF"/><text font-family="Aptos,Aptos_MSFontService,sans-serif" font-weight="400" font-size="55" transform="matrix(1 0 0 1 921.197 746)">Vehicle </text><text font-family="Aptos,Aptos_MSFontService,sans-serif" font-weight="400" font-size="55" transform="matrix(1 0 0 1 911.183 812)">Provider</text><path d="M0 0 0.000360892 1253.49" stroke="#156082" stroke-width="6.875" stroke-miterlimit="8" fill="none" fill-rule="evenodd" transform="matrix(-1 0 0 1 2369.5 894.5)"/><path d="M0 0 0.000721785 1253.49" stroke="#156082" stroke-width="6.875" stroke-miterlimit="8" fill="none" fill-rule="evenodd" transform="matrix(-1 0 0 1 2862.5 894.5)"/><path d="M0 0 0.00108268 1253.49" stroke="#156082" stroke-width="6.875" stroke-miterlimit="8" fill="none" fill-rule="evenodd" transform="matrix(-1 0 0 1 3354.5 894.5)"/><path d="M0 0 0.000721785 1253.49" stroke="#156082" stroke-width="6.875" stroke-miterlimit="8" fill="none" fill-rule="evenodd" transform="matrix(-1 0 0 1 1695.5 894.5)"/><path d="M0 0 0.000721785 1253.49" stroke="#156082" stroke-width="6.875" stroke-miterlimit="8" fill="none" fill-rule="evenodd" transform="matrix(-1 0 0 1 1009.5 894.5)"/><rect x="1070" y="944" width="566" height="83.0002" fill="#FFFFFF"/><text font-family="Aptos,Aptos_MSFontService,sans-serif" font-weight="400" font-size="41" transform="matrix(1 0 0 1 1103.4 998)">Discover digital twin service</text><rect x="1070" y="1064" width="400" height="84.0002" fill="#FFFFFF"/><text font-family="Aptos,Aptos_MSFontService,sans-serif" font-weight="400" font-size="41" transform="matrix(1 0 0 1 1103.4 1119)">Register VSS DTDL</text><path d="M1695.5 1207.06 2346.48 1207.06 2346.48 1213.94 1695.5 1213.94ZM2341.9 1196.75 2369.4 1210.5 2341.9 1224.25Z" fill="#156082"/><rect x="1749" y="1168" width="566" height="83.9999" fill="#FFFFFF"/><text font-family="Aptos,Aptos_MSFontService,sans-serif" font-weight="400" font-size="41" transform="matrix(1 0 0 1 1781.78 1223)">Discover digital twin service</text><path d="M1695.5 1471.06 2839.19 1471.06 2839.19 1477.94 1695.5 1477.94ZM2834.61 1460.75 2862.11 1474.5 2834.61 1488.25Z" fill="#156082"/><rect x="1733" y="1426" width="373" height="84.0002" fill="#FFFFFF"/><text font-family="Aptos,Aptos_MSFontService,sans-serif" font-weight="400" font-size="41" transform="matrix(1 0 0 1 1766.17 1481)">Find signals by id</text><rect x="1683.5" y="1226.5" width="29.0002" height="235" stroke="#042433" stroke-width="6.875" stroke-miterlimit="8" fill="#156082"/><rect x="1733" y="1300" width="493" height="83.9999" fill="#FFFFFF"/><text font-family="Aptos,Aptos_MSFontService,sans-serif" font-weight="400" font-size="41" transform="matrix(1 0 0 1 1766.17 1355)">Collect required signals</text><path d="M1695.5 1840.06 3331.9 1840.06 3331.9 1846.94 1695.5 1846.94ZM3327.32 1829.75 3354.82 1843.5 3327.32 1857.25Z" fill="#156082"/><rect x="1732" y="1797" width="428" height="82.9999" fill="#FFFFFF"/><text font-family="Aptos,Aptos_MSFontService,sans-serif" font-weight="400" font-size="41" transform="matrix(1 0 0 1 1764.53 1852)">Subscribe to signals</text><rect x="1070" y="1908" width="473" height="82.9999" fill="#FFFFFF"/><text font-family="Aptos,Aptos_MSFontService,sans-serif" font-weight="400" font-size="41" transform="matrix(1 0 0 1 1103.4 1962)">Publish signal updates</text><path d="M1.0634e-06-3.4375 27.5-3.43749 27.5 3.43751-1.0634e-06 3.4375ZM48.125-3.43749 55-3.43748 55 3.43752 48.125 3.43751ZM75.625-3.43748 103.125-3.43747 103.125 3.43753 75.625 3.43752ZM123.75-3.43746 130.625-3.43746 130.625 3.43754 123.75 3.43754ZM151.25-3.43745 178.75-3.43744 178.75 3.43756 151.25 3.43755ZM199.375-3.43744 206.25-3.43744 206.25 3.43756 199.375 3.43756ZM226.875-3.43743 254.375-3.43742 254.375 3.43758 226.875 3.43757ZM275-3.43742 281.875-3.43741 281.875 3.43759 275 3.43758ZM302.5-3.43741 330-3.4374 330 3.4376 302.5 3.43759ZM350.625-3.43739 357.5-3.43739 357.5 3.43761 350.625 3.43761ZM378.125-3.43738 405.625-3.43737 405.625 3.43763 378.125 3.43762ZM426.25-3.43737 433.125-3.43737 433.125 3.43763 426.25 3.43763ZM453.75-3.43736 481.25-3.43735 481.25 3.43765 453.75 3.43764ZM501.875-3.43734 508.75-3.43734 508.75 3.43766 501.875 3.43766ZM529.375-3.43734 556.875-3.43733 556.875 3.43767 529.375 3.43766ZM577.5-3.43732 584.375-3.43732 584.375 3.43768 577.5 3.43768ZM605-3.43731 632.5-3.4373 632.5 3.4377 605 3.43769ZM653.125-3.4373 660-3.4373 660 3.4377 653.125 3.4377ZM680.625-3.43729 708.125-3.43728 708.125 3.43772 680.625 3.43771ZM728.75-3.43727 735.625-3.43727 735.625 3.43773 728.75 3.43773ZM756.25-3.43727 783.75-3.43726 783.75 3.43774 756.25 3.43773ZM804.375-3.43725 811.25-3.43725 811.25 3.43775 804.375 3.43775ZM831.875-3.43724 859.375-3.43723 859.375 3.43777 831.875 3.43776ZM880-3.43723 886.875-3.43723 886.875 3.43777 880 3.43777ZM907.5-3.43722 935-3.43721 935 3.43779 907.5 3.43778ZM955.625-3.4372 962.5-3.4372 962.5 3.4378 955.625 3.4378ZM983.125-3.4372 1010.62-3.43719 1010.62 3.43781 983.125 3.4378ZM1031.25-3.43718 1038.12-3.43718 1038.12 3.43782 1031.25 3.43782ZM1058.75-3.43717 1086.25-3.43716 1086.25 3.43784 1058.75 3.43783ZM1106.88-3.43716 1113.75-3.43716 1113.75 3.43784 1106.88 3.43784ZM1134.38-3.43715 1143.69-3.43715 1143.69 3.43785 1134.38 3.43785ZM1139.11-13.7496 1166.61 0.000360892 1139.11 13.7504Z" fill="#156082" transform="matrix(-1 0 0 1 2862.11 1536.5)"/><rect x="2446" y="1495" width="355" height="83.9999" fill="#FFFFFF"/><text font-family="Aptos,Aptos_MSFontService,sans-serif" font-style="italic" font-weight="400" font-size="41" transform="matrix(1 0 0 1 2479.14 1550)">signal metadata</text><path d="M1695.5 1645.06 2839.19 1645.06 2839.19 1651.94 1695.5 1651.94ZM2834.61 1634.75 2862.11 1648.5 2834.61 1662.25Z" fill="#156082"/><rect x="1732" y="1605" width="546" height="83.0002" fill="#FFFFFF"/><text font-family="Aptos,Aptos_MSFontService,sans-serif" font-weight="400" font-size="41" transform="matrix(1 0 0 1 1764.53 1660)">Get subscription metadata</text><path d="M1.0634e-06-3.4375 27.5-3.43749 27.5 3.43751-1.0634e-06 3.4375ZM48.125-3.43749 55-3.43748 55 3.43752 48.125 3.43751ZM75.625-3.43748 103.125-3.43747 103.125 3.43753 75.625 3.43752ZM123.75-3.43746 130.625-3.43746 130.625 3.43754 123.75 3.43754ZM151.25-3.43745 178.75-3.43744 178.75 3.43756 151.25 3.43755ZM199.375-3.43744 206.25-3.43744 206.25 3.43756 199.375 3.43756ZM226.875-3.43743 254.375-3.43742 254.375 3.43758 226.875 3.43757ZM275-3.43742 281.875-3.43741 281.875 3.43759 275 3.43758ZM302.5-3.43741 330-3.4374 330 3.4376 302.5 3.43759ZM350.625-3.43739 357.5-3.43739 357.5 3.43761 350.625 3.43761ZM378.125-3.43738 405.625-3.43737 405.625 3.43763 378.125 3.43762ZM426.25-3.43737 433.125-3.43737 433.125 3.43763 426.25 3.43763ZM453.75-3.43736 481.25-3.43735 481.25 3.43765 453.75 3.43764ZM501.875-3.43734 508.75-3.43734 508.75 3.43766 501.875 3.43766ZM529.375-3.43734 556.875-3.43733 556.875 3.43767 529.375 3.43766ZM577.5-3.43732 584.375-3.43732 584.375 3.43768 577.5 3.43768ZM605-3.43731 632.5-3.4373 632.5 3.4377 605 3.43769ZM653.125-3.4373 660-3.4373 660 3.4377 653.125 3.4377ZM680.625-3.43729 708.125-3.43728 708.125 3.43772 680.625 3.43771ZM728.75-3.43727 735.625-3.43727 735.625 3.43773 728.75 3.43773ZM756.25-3.43727 783.75-3.43726 783.75 3.43774 756.25 3.43773ZM804.375-3.43725 811.25-3.43725 811.25 3.43775 804.375 3.43775ZM831.875-3.43724 859.375-3.43723 859.375 3.43777 831.875 3.43776ZM880-3.43723 886.875-3.43723 886.875 3.43777 880 3.43777ZM907.5-3.43722 935-3.43721 935 3.43779 907.5 3.43778ZM955.625-3.4372 962.5-3.4372 962.5 3.4378 955.625 3.4378ZM983.125-3.4372 1010.62-3.43719 1010.62 3.43781 983.125 3.4378ZM1031.25-3.43718 1038.12-3.43718 1038.12 3.43782 1031.25 3.43782ZM1058.75-3.43717 1086.25-3.43716 1086.25 3.43784 1058.75 3.43783ZM1106.88-3.43716 1113.75-3.43716 1113.75 3.43784 1106.88 3.43784ZM1134.38-3.43715 1143.69-3.43715 1143.69 3.43785 1134.38 3.43785ZM1139.11-13.7496 1166.61 0.000360892 1139.11 13.7504Z" fill="#156082" transform="matrix(-1 0 0 1 2864.11 1724.5)"/><rect x="2378" y="1684" width="474" height="82.9999" fill="#FFFFFF"/><text font-family="Aptos,Aptos_MSFontService,sans-serif" font-style="italic" font-weight="400" font-size="41" transform="matrix(1 0 0 1 2410.58 1738)">subscription metadata</text><path d="M3356.3 2042.43 1718.42 2039.97 1718.43 2033.1 3356.31 2035.55ZM1722.98 2050.29 1695.5 2036.5 1723.02 2022.79Z" fill="#156082"/><rect x="1758" y="1994" width="479" height="82.9999" fill="#FFFFFF"/><text font-family="Aptos,Aptos_MSFontService,sans-serif" font-weight="400" font-size="41" transform="matrix(1 0 0 1 1790.69 2049)">Receive signal updates</text></g></svg>