<svg width="2844" height="2313" xmlns="http://www.w3.org/2000/svg" xmlns:xlink="http://www.w3.org/1999/xlink" xml:space="preserve" overflow="hidden"><defs><filter id="fx0" x="-10%" y="-10%" width="120%" height="120%" filterUnits="userSpaceOnUse" primitiveUnits="userSpaceOnUse"><feComponentTransfer color-interpolation-filters="sRGB"><feFuncR type="discrete" tableValues="0 0"/><feFuncG type="discrete" tableValues="0 0"/><feFuncB type="discrete" tableValues="0 0"/><feFuncA type="linear" slope="0.631373" intercept="0"/></feComponentTransfer><feGaussianBlur stdDeviation="6.875 6.875"/></filter><filter id="fx1" x="-10%" y="-10%" width="120%" height="120%" filterUnits="userSpaceOnUse" primitiveUnits="userSpaceOnUse"><feComponentTransfer color-interpolation-filters="sRGB"><feFuncR type="discrete" tableValues="0 0"/><feFuncG type="discrete" tableValues="0 0"/><feFuncB type="discrete" tableValues="0 0"/><feFuncA type="linear" slope="0.631373" intercept="0"/></feComponentTransfer><feGaussianBlur stdDeviation="6.875 6.875"/></filter><filter id="fx2" x="-10%" y="-10%" width="120%" height="120%" filterUnits="userSpaceOnUse" primitiveUnits="userSpaceOnUse"><feComponentTransfer color-interpolation-filters="sRGB"><feFuncR type="discrete" tableValues="0 0"/><feFuncG type="discrete" tableValues="0 0"/><feFuncB type="discrete" tableValues="0 0"/><feFuncA type="linear" slope="0.631373" intercept="0"/></feComponentTransfer><feGaussianBlur stdDeviation="6.875 6.875"/></filter><filter id="fx3" x="-10%" y="-10%" width="120%" height="120%" filterUnits="userSpaceOnUse" primitiveUnits="userSpaceOnUse"><feComponentTransfer color-interpolation-filters="sRGB"><feFuncR type="discrete" tableValues="0 0"/><feFuncG type="discrete" tableValues="0 0"/><feFuncB type="discrete" tableValues="0 0"/><feFuncA type="linear" slope="0.631373" intercept="0"/></feComponentTransfer><feGaussianBlur stdDeviation="6.875 6.875"/></filter><filter id="fx4" x="-10%" y="-10%" width="120%" height="120%" filterUnits="userSpaceOnUse" primitiveUnits="userSpaceOnUse"><feComponentTransfer color-interpolation-filters="sRGB"><feFuncR type="discrete" tableValues="0 0"/><feFuncG type="discrete" tableValues="0 0"/><feFuncB type="discrete" tableValues="0 0"/><feFuncA type="linear" slope="0.631373" intercept="0"/></feComponentTransfer><feGaussianBlur stdDeviation="6.875 6.875"/></filter><filter id="fx5" x="-10%" y="-10%" width="120%" height="120%" filterUnits="userSpaceOnUse" primitiveUnits="userSpaceOnUse"><feComponentTransfer color-interpolation-filters="sRGB"><feFuncR type="discrete" tableValues="0 0"/><feFuncG type="discrete" tableValues="0 0"/><feFuncB type="discrete" tableValues="0 0"/><feFuncA type="linear" slope="0.631373" intercept="0"/></feComponentTransfer><feGaussianBlur stdDeviation="6.875 6.875"/></filter><filter id="fx6" x="-10%" y="-10%" width="120%" height="120%" filterUnits="userSpaceOnUse" primitiveUnits="userSpaceOnUse"><feComponentTransfer color-interpolation-filters="sRGB"><feFuncR type="discrete" tableValues="0 0"/><feFuncG type="discrete" tableValues="0 0"/><feFuncB type="discrete" tableValues="0 0"/><feFuncA type="linear" slope="0.631373" intercept="0"/></feComponentTransfer><feGaussianBlur stdDeviation="6.875 6.875"/></filter><filter id="fx7" x="-10%" y="-10%" width="120%" height="120%" filterUnits="userSpaceOnUse" primitiveUnits="userSpaceOnUse"><feComponentTransfer color-interpolation-filters="sRGB"><feFuncR type="discrete" tableValues="0 0"/><feFuncG type="discrete" tableValues="0 0"/><feFuncB type="discrete" tableValues="0 0"/><feFuncA type="linear" slope="0.631373" intercept="0"/></feComponentTransfer><feGaussianBlur stdDeviation="6.875 6.875"/></filter><filter id="fx8" x="-10%" y="-10%" width="120%" height="120%" filterUnits="userSpaceOnUse" primitiveUnits="userSpaceOnUse"><feComponentTransfer color-interpolation-filters="sRGB"><feFuncR type="discrete" tableValues="0 0"/><feFuncG type="discrete" tableValues="0 0"/><feFuncB type="discrete" tableValues="0 0"/><feFuncA type="linear" slope="0.631373" intercept="0"/></feComponentTransfer><feGaussianBlur stdDeviation="6.875 6.875"/></filter><filter id="fx9" x="-10%" y="-10%" width="120%" height="120%" filterUnits="userSpaceOnUse" primitiveUnits="userSpaceOnUse"><feComponentTransfer color-interpolation-filters="sRGB"><feFuncR type="discrete" tableValues="0 0"/><feFuncG type="discrete" tableValues="0 0"/><feFuncB type="discrete" tableValues="0 0"/><feFuncA type="linear" slope="0.631373" intercept="0"/></feComponentTransfer><feGaussianBlur stdDeviation="6.875 6.875"/></filter><filter id="fx10" x="-10%" y="-10%" width="120%" height="120%" filterUnits="userSpaceOnUse" primitiveUnits="userSpaceOnUse"><feComponentTransfer color-interpolation-filters="sRGB"><feFuncR type="discrete" tableValues="0 0"/><feFuncG type="discrete" tableValues="0 0"/><feFuncB type="discrete" tableValues="0 0"/><feFuncA type="linear" slope="0.631373" intercept="0"/></feComponentTransfer><feGaussianBlur stdDeviation="6.875 6.875"/></filter><filter id="fx11" x="-10%" y="-10%" width="120%" height="120%" filterUnits="userSpaceOnUse" primitiveUnits="userSpaceOnUse"><feComponentTransfer color-interpolation-filters="sRGB"><feFuncR type="discrete" tableValues="0 0"/><feFuncG type="discrete" tableValues="0 0"/><feFuncB type="discrete" tableValues="0 0"/><feFuncA type="linear" slope="0.631373" intercept="0"/></feComponentTransfer><feGaussianBlur stdDeviation="6.875 6.875"/></filter><filter id="fx12" x="-10%" y="-10%" width="120%" height="120%" filterUnits="userSpaceOnUse" primitiveUnits="userSpaceOnUse"><feComponentTransfer color-interpolation-filters="sRGB"><feFuncR type="discrete" tableValues="0 0"/><feFuncG type="discrete" tableValues="0 0"/><feFuncB type="discrete" tableValues="0 0"/><feFuncA type="linear" slope="0.631373" intercept="0"/></feComponentTransfer><feGaussianBlur stdDeviation="6.875 6.875"/></filter><filter id="fx13" x="-10%" y="-10%" width="120%" height="120%" filterUnits="userSpaceOnUse" primitiveUnits="userSpaceOnUse"><feComponentTransfer color-interpolation-filters="sRGB"><feFuncR type="discrete" tableValues="0 0"/><feFuncG type="discrete" tableValues="0 0"/><feFuncB type="discrete" tableValues="0 0"/><feFuncA type="linear" slope="0.631373" intercept="0"/></feComponentTransfer><feGaussianBlur stdDeviation="6.875 6.875"/></filter><filter id="fx14" x="-10%" y="-10%" width="120%" height="120%" filterUnits="userSpaceOnUse" primitiveUnits="userSpaceOnUse"><feComponentTransfer color-interpolation-filters="sRGB"><feFuncR type="discrete" tableValues="0 0"/><feFuncG type="discrete" tableValues="0 0"/><feFuncB type="discrete" tableValues="0 0"/><feFuncA type="linear" slope="0.631373" intercept="0"/></feComponentTransfer><feGaussianBlur stdDeviation="6.875 6.875"/></filter><filter id="fx15" x="-10%" y="-10%" width="120%" height="120%" filterUnits="userSpaceOnUse" primitiveUnits="userSpaceOnUse"><feComponentTransfer color-interpolation-filters="sRGB"><feFuncR type="discrete" tableValues="0 0"/><feFuncG type="discrete" tableValues="0 0"/><feFuncB type="discrete" tableValues="0 0"/><feFuncA type="linear" slope="0.631373" intercept="0"/></feComponentTransfer><feGaussianBlur stdDeviation="6.875 6.875"/></filter><clipPath id="clip16"><rect x="41" y="34" width="67" height="92"/></clipPath><clipPath id="clip17"><rect x="38" y="30" width="114" height="100"/></clipPath><clipPath id="clip18"><rect x="38" y="34" width="77" height="96"/></clipPath><clipPath id="clip19"><rect x="34" y="34" width="85" height="92"/></clipPath><clipPath id="clip20"><rect x="41" y="34" width="74" height="96"/></clipPath><clipPath id="clip21"><rect x="38" y="34" width="81" height="96"/></clipPath><clipPath id="clip22"><rect x="38" y="34" width="81" height="92"/></clipPath><clipPath id="clip23"><rect x="38" y="34" width="81" height="96"/></clipPath><clipPath id="clip24"><rect x="1007" y="773" width="514" height="106"/></clipPath></defs><g transform="translate(-926 -79)"><path d="M2763.5 2233.5C2763.5 2219.14 2775.14 2207.5 2789.5 2207.5L3521.5 2207.5C3535.86 2207.5 3547.5 2219.14 3547.5 2233.5L3547.5 2337.5C3547.5 2351.86 3535.86 2363.5 3521.5 2363.5L2789.5 2363.5C2775.14 2363.5 2763.5 2351.86 2763.5 2337.5Z" stroke="#000000" stroke-width="6.875" stroke-miterlimit="8" fill="#92D050" fill-rule="evenodd"/><text font-family="Segoe UI,Segoe UI_MSFontService,sans-serif" font-weight="400" font-size="55" transform="matrix(1 0 0 1 3015.66 2306)">Demo Feed</text><rect x="929.5" y="2155.5" width="2837" height="233" stroke="#7F7F7F" stroke-width="6.875" stroke-miterlimit="8" fill="none"/><path d="M968.5 2130.5 3717.69 2130.5" stroke="#D9D9D9" stroke-width="4.58333" stroke-miterlimit="8" fill="none" fill-rule="evenodd"/><rect x="929.5" y="735.5" width="2837" height="1395" stroke="#000000" stroke-width="6.875" stroke-miterlimit="8" fill="none"/><text font-family="Segoe UI,Segoe UI_MSFontService,sans-serif" font-weight="700" font-size="55" transform="matrix(1 0 0 1 1655.34 806)">Automotive Software Stack</text><rect x="2788.5" y="1443.5" width="761" height="602" stroke="#000000" stroke-width="6.875" stroke-miterlimit="8" fill="none"/><text font-family="Segoe UI,Segoe UI_MSFontService,sans-serif" font-weight="400" font-size="50" transform="matrix(1 0 0 1 2821.02 1508)">In Vehicle</text><text font-family="Segoe UI,Segoe UI_MSFontService,sans-serif" font-weight="400" font-size="50" transform="matrix(1 0 0 1 2821.02 1569)">Digital Twin</text><path d="M2896.5 1633C2896.5 1617.81 2908.81 1605.5 2924 1605.5L3444 1605.5C3459.19 1605.5 3471.5 1617.81 3471.5 1633L3471.5 1743C3471.5 1758.19 3459.19 1770.5 3444 1770.5L2924 1770.5C2908.81 1770.5 2896.5 1758.19 2896.5 1743Z" stroke="#000000" stroke-width="4.58333" stroke-miterlimit="8" fill="#FFFFFF" fill-rule="evenodd"/><text font-family="Segoe UI,Segoe UI_MSFontService,sans-serif" font-weight="400" font-size="46" transform="matrix(1 0 0 1 3011.05 1678)">In</text><text font-family="Segoe UI,Segoe UI_MSFontService,sans-serif" font-weight="400" font-size="46" transform="matrix(1 0 0 1 3048.86 1678)">-</text><text font-family="Segoe UI,Segoe UI_MSFontService,sans-serif" font-weight="400" font-size="46" transform="matrix(1 0 0 1 3067.19 1678)">Vehicle Digital </text><text font-family="Segoe UI,Segoe UI_MSFontService,sans-serif" font-weight="400" font-size="46" transform="matrix(1 0 0 1 3058.88 1733)">Twin Service</text><rect x="1098.5" y="1443.5" width="627" height="378" stroke="#000000" stroke-width="6.875" stroke-miterlimit="8" fill="none"/><text font-family="Segoe UI,Segoe UI_MSFontService,sans-serif" font-weight="400" font-size="50" transform="matrix(1 0 0 1 1209.29 1508)">Service Registry &amp; </text><text font-family="Segoe UI,Segoe UI_MSFontService,sans-serif" font-weight="400" font-size="50" transform="matrix(1 0 0 1 1303.82 1569)">Discovery</text><rect x="2307.5" y="1006.5" width="1240" height="350" stroke="#000000" stroke-width="6.875" stroke-miterlimit="8" fill="none"/><text font-family="Segoe UI,Segoe UI_MSFontService,sans-serif" font-weight="400" font-size="50" transform="matrix(1 0 0 1 2746.32 1071)">Digital Twin</text><text font-family="Segoe UI,Segoe UI_MSFontService,sans-serif" font-weight="400" font-size="50" transform="matrix(1 0 0 1 2626.31 1132)">Cloud Synchronization</text><path d="M2389.5 1181C2389.5 1165.81 2401.81 1153.5 2417 1153.5L2824 1153.5C2839.19 1153.5 2851.5 1165.81 2851.5 1181L2851.5 1291C2851.5 1306.19 2839.19 1318.5 2824 1318.5L2417 1318.5C2401.81 1318.5 2389.5 1306.19 2389.5 1291Z" stroke="#000000" stroke-width="4.58333" stroke-miterlimit="8" fill="#FFFFFF" fill-rule="evenodd"/><text font-family="Segoe UI,Segoe UI_MSFontService,sans-serif" font-weight="400" font-size="46" transform="matrix(1 0 0 1 2485.04 1253)">Cartographer</text><path d="M2952.5 1181C2952.5 1165.81 2964.81 1153.5 2980 1153.5L3387 1153.5C3402.19 1153.5 3414.5 1165.81 3414.5 1181L3414.5 1291C3414.5 1306.19 3402.19 1318.5 3387 1318.5L2980 1318.5C2964.81 1318.5 2952.5 1306.19 2952.5 1291Z" stroke="#000000" stroke-width="4.58333" stroke-miterlimit="8" fill="#FFFFFF" fill-rule="evenodd"/><text font-family="Segoe UI,Segoe UI_MSFontService,sans-serif" font-weight="400" font-size="46" transform="matrix(1 0 0 1 3111.31 1253)">Emitter</text><path d="M2949.5 825C2949.5 809.812 2961.81 797.5 2977 797.5L3387 797.5C3402.19 797.5 3414.5 809.812 3414.5 825L3414.5 935C3414.5 950.188 3402.19 962.5 3387 962.5L2977 962.5C2961.81 962.5 2949.5 950.188 2949.5 935Z" stroke="#000000" stroke-width="4.58333" stroke-miterlimit="8" fill="#FFFFFF" fill-rule="evenodd"/><text font-family="Segoe UI,Segoe UI_MSFontService,sans-serif" font-weight="400" font-size="46" transform="matrix(1 0 0 1 3122.3 870)">Cloud </text><text font-family="Segoe UI,Segoe UI_MSFontService,sans-serif" font-weight="400" font-size="46" transform="matrix(1 0 0 1 3076.46 925)">Connector </text><path d="M990.5 1026.5C990.5 995.573 1015.57 970.5 1046.5 970.5L1716.5 970.5C1747.43 970.5 1772.5 995.573 1772.5 1026.5L1772.5 1250.5C1772.5 1281.43 1747.43 1306.5 1716.5 1306.5L1046.5 1306.5C1015.57 1306.5 990.5 1281.43 990.5 1250.5Z" stroke="#000000" stroke-width="6.875" stroke-miterlimit="8" fill="#B8D4F0" fill-rule="evenodd"/><text font-family="Segoe UI,Segoe UI_MSFontService,sans-serif" font-weight="400" font-size="55" transform="matrix(1 0 0 1 1231.92 1057)">Applications</text><path d="M2874.43 1233.38 2892.77 1233.52 2892.73 1238.1 2874.4 1237.96ZM2906.52 1233.62 2924.85 1233.76 2924.81 1238.35 2906.48 1238.21ZM2878.9 1249.46 2851.5 1235.5 2879.1 1221.96ZM2922.41 1222.28 2949.81 1236.24 2922.2 1249.78Z" fill="#006600"/><path d="M3180.21 1130.6 3180.21 1112.27 3184.79 1112.27 3184.79 1130.6ZM3180.21 1098.52 3180.21 1080.19 3184.79 1080.19 3184.79 1098.52ZM3180.21 1066.44 3180.21 1048.1 3184.79 1048.1 3184.79 1066.44ZM3180.21 1034.35 3180.21 1016.02 3184.79 1016.02 3184.79 1034.35ZM3180.21 1002.27 3180.21 985.417 3184.79 985.417 3184.79 1002.27ZM3196.25 1126.02 3182.5 1153.52 3168.75 1126.02ZM3168.75 990 3182.5 962.5 3196.25 990Z" fill="#006600"/><path d="M2.53138 22.8915 2.72325 41.2238-1.85983 41.2718-2.0517 22.9395ZM2.86715 54.9731 3.05902 73.3054-1.52406 73.3534-1.71593 55.021ZM3.20293 87.0546 3.3948 105.387-1.18829 105.435-1.38016 87.1026ZM-13.4614 27.6424 0 0 14.0371 27.3546ZM14.9018 109.974 1.44032 137.616-12.5967 110.262Z" fill="#006600" transform="matrix(1 0 0 -1 3180.5 715.116)"/><path d="M22.9167-2.29167 41.25-2.29167 41.25 2.29167 22.9167 2.29167ZM55-2.29167 73.3333-2.29167 73.3333 2.29167 55 2.29167ZM84.7917 4.58333 84.7917 22.9167 80.2083 22.9167 80.2083 4.58333ZM84.7917 36.6667 84.7917 55 80.2083 55 80.2083 36.6667ZM84.7917 68.75 84.7917 87.0833 80.2083 87.0833 80.2083 68.75ZM84.7917 100.833 84.7917 119.167 80.2083 119.167 80.2083 100.833ZM84.7917 132.917 84.7917 151.25 80.2083 151.25 80.2083 132.917ZM84.7917 165 84.7917 183.333 80.2083 183.333 80.2083 165ZM84.7917 197.083 84.7917 215.417 80.2083 215.417 80.2083 197.083ZM84.7917 229.167 84.7917 247.5 80.2083 247.5 80.2083 229.167ZM84.7917 261.25 84.7917 279.583 80.2083 279.583 80.2083 261.25ZM84.7917 293.333 84.7917 311.667 80.2083 311.667 80.2083 293.333ZM84.7917 325.417 84.7917 343.75 80.2083 343.75 80.2083 325.417ZM84.7917 357.5 84.7917 375.833 80.2083 375.833 80.2083 357.5ZM84.7917 389.583 84.7917 407.917 80.2083 407.917 80.2083 389.583ZM84.7917 421.667 84.7917 440 80.2083 440 80.2083 421.667ZM84.7917 453.75 84.7917 472.083 80.2083 472.083 80.2083 453.75ZM84.7917 485.833 84.7917 504.167 80.2083 504.167 80.2083 485.833ZM84.7917 517.917 84.7917 536.25 80.2083 536.25 80.2083 517.917ZM84.7917 550 84.7917 568.333 80.2083 568.333 80.2083 550ZM84.7917 582.083 84.7917 600.417 80.2083 600.417 80.2083 582.083ZM84.7917 614.167 84.7917 632.5 80.2083 632.5 80.2083 614.167ZM84.7917 646.25 84.7917 664.583 80.2083 664.583 80.2083 646.25ZM84.7917 678.333 84.7917 685.013 68.5548 685.013 68.5548 680.43 82.5 680.43 80.2083 682.721 80.2083 678.333ZM54.8048 685.013 36.4714 685.013 36.4714 680.43 54.8048 680.43ZM27.5 13.75 0 0 27.5-13.75ZM32.0833 696.471 4.58333 682.721 32.0833 668.971Z" fill="#006600" transform="matrix(1 0 0 -1 3414.5 1919.22)"/><rect x="2267.5" y="444.5" width="496" height="158" stroke="#000000" stroke-width="6.875" stroke-miterlimit="8" fill="none"/><text font-family="Segoe UI,Segoe UI_MSFontService,sans-serif" font-weight="400" font-size="50" transform="matrix(1 0 0 1 2383.99 510)">Digital Twin </text><text font-family="Segoe UI,Segoe UI_MSFontService,sans-serif" font-weight="400" font-size="50" transform="matrix(1 0 0 1 2328.99 571)">Mapping Service</text><rect x="1855.5" y="1443.5" width="627" height="375" stroke="#000000" stroke-width="6.875" stroke-miterlimit="8" fill="none"/><text font-family="Segoe UI,Segoe UI_MSFontService,sans-serif" font-weight="400" font-size="50" transform="matrix(1 0 0 1 2004.28 1508)">Dynamic Topic </text><text font-family="Segoe UI,Segoe UI_MSFontService,sans-serif" font-weight="400" font-size="50" transform="matrix(1 0 0 1 2020.05 1569)">Management</text><path d="M1855.5 1947.67C1855.5 1932.66 1867.66 1920.5 1882.67 1920.5L2455.33 1920.5C2470.34 1920.5 2482.5 1932.66 2482.5 1947.67L2482.5 2056.33C2482.5 2071.34 2470.34 2083.5 2455.33 2083.5L1882.67 2083.5C1867.66 2083.5 1855.5 2071.34 1855.5 2056.33Z" stroke="#000000" stroke-width="4.58333" stroke-miterlimit="8" fill="#FFFFFF" fill-rule="evenodd"/><text font-family="Segoe UI,Segoe UI_MSFontService,sans-serif" font-weight="400" font-size="46" transform="matrix(1 0 0 1 2034.07 2019)">MQTT broker</text><path d="M1020.5 1053.5C1020.5 1022.57 1045.57 997.5 1076.5 997.5L1746.5 997.5C1777.43 997.5 1802.5 1022.57 1802.5 1053.5L1802.5 1277.5C1802.5 1308.43 1777.43 1333.5 1746.5 1333.5L1076.5 1333.5C1045.57 1333.5 1020.5 1308.43 1020.5 1277.5Z" stroke="#000000" stroke-width="6.875" stroke-miterlimit="8" fill="#92D050" fill-rule="evenodd"/><text font-family="Segoe UI,Segoe UI_MSFontService,sans-serif" font-weight="400" font-size="55" transform="matrix(1 0 0 1 1109.12 1153)">Insurance Event Detector </text><text font-family="Segoe UI,Segoe UI_MSFontService,sans-serif" font-weight="400" font-size="55" transform="matrix(1 0 0 1 1360.91 1219)">App</text><path d="M2.34012 22.9122 2.37889 41.2455-2.20444 41.2551-2.2432 22.9219ZM2.40796 54.9954 2.44673 73.3287-2.1366 73.3384-2.17536 55.0051ZM2.4758 87.0787 2.51457 105.412-2.06875 105.422-2.10752 87.0884ZM2.54364 119.162 2.58241 137.495-2.00091 137.505-2.03968 119.172ZM2.61149 151.245 2.65025 169.578-1.93307 169.588-1.97184 151.255ZM2.67933 183.328 2.71809 201.662-1.86523 201.671-1.904 183.338ZM2.74717 215.412 2.78593 233.745-1.79739 233.755-1.83616 215.421ZM2.81501 247.495 2.85378 265.828-1.72955 265.838-1.76831 247.505ZM2.88285 279.578 2.92162 297.912-1.66171 297.921-1.70047 279.588ZM2.95069 311.662 2.98946 329.995-1.59387 330.005-1.63263 311.671ZM3.01853 343.745 3.0573 362.078-1.52602 362.088-1.56479 343.754ZM3.08637 375.828 3.12514 394.161-1.45818 394.171-1.49695 375.838ZM3.15421 407.911 3.19298 426.245-1.39034 426.254-1.42911 407.921ZM3.22206 439.995 3.26082 458.328-1.3225 458.338-1.36127 440.004ZM-13.6918 27.529 0 0 13.8081 27.4709ZM14.7142 455.985 1.02241 483.514-12.7857 456.043Z" fill="#006600" transform="matrix(1 0 0 -1 2514.5 1086.01)"/><path d="M1409.6 1420.53 1409.52 1402.2 1414.1 1402.18 1414.19 1420.51ZM1409.46 1388.45 1409.37 1370.11 1413.96 1370.09 1414.04 1388.43ZM1425.62 1415.87 1412 1443.44 1398.12 1416ZM1397.88 1361.06 1411.5 1333.5 1425.37 1360.94Z" fill="#006600"/><path d="M2505.42 1684.21 2523.75 1684.21 2523.75 1688.79 2505.42 1688.79ZM2537.5 1684.21 2555.83 1684.21 2555.83 1688.79 2537.5 1688.79ZM2569.58 1684.21 2587.92 1684.21 2587.92 1688.79 2569.58 1688.79ZM2601.67 1684.21 2620 1684.21 2620 1688.79 2601.67 1688.79ZM2633.75 1684.21 2652.08 1684.21 2652.08 1688.79 2633.75 1688.79ZM2665.83 1684.21 2684.17 1684.21 2684.17 1688.79 2665.83 1688.79ZM2697.92 1684.21 2716.25 1684.21 2716.25 1688.79 2697.92 1688.79ZM2730 1684.21 2748.33 1684.21 2748.33 1688.79 2730 1688.79ZM2762.08 1684.21 2780.42 1684.21 2780.42 1688.79 2762.08 1688.79ZM2794.17 1684.21 2812.5 1684.21 2812.5 1688.79 2794.17 1688.79ZM2826.25 1684.21 2836.95 1684.21 2836.95 1688.79 2826.25 1688.79ZM2510 1700.25 2482.5 1686.5 2510 1672.75ZM2832.37 1672.75 2859.87 1686.5 2832.37 1700.25Z" fill="#006600"/><path d="M2.29175 22.9167 2.29181 41.25-2.29152 41.25-2.29159 22.9167ZM2.29186 55 2.29193 73.3333-2.29141 73.3333-2.29147 55ZM-13.7499 27.5 0 0 13.7501 27.5ZM13.7503 74.8184 0.000360892 102.318-13.7497 74.8185Z" fill="#006600" transform="matrix(-1 0 0 1 2169.5 1818.5)"/><path d="M1874.42 1161.21 1892.75 1161.21 1892.75 1165.79 1874.42 1165.79ZM1906.5 1161.21 1924.83 1161.21 1924.83 1165.79 1906.5 1165.79ZM1938.58 1161.21 1956.92 1161.21 1956.92 1165.79 1938.58 1165.79ZM1970.67 1161.21 1989 1161.21 1989 1165.79 1970.67 1165.79ZM2002.75 1161.21 2021.08 1161.21 2021.08 1165.79 2002.75 1165.79ZM2034.83 1161.21 2053.17 1161.21 2053.17 1165.79 2034.83 1165.79ZM2066.92 1161.21 2085.25 1161.21 2085.25 1165.79 2066.92 1165.79ZM2099 1161.21 2117.33 1161.21 2117.33 1165.79 2099 1165.79ZM2131.08 1161.21 2149.42 1161.21 2149.42 1165.79 2131.08 1165.79ZM2163.17 1161.21 2171.99 1161.21 2171.99 1175.31 2167.4 1175.31 2167.4 1163.5 2169.69 1165.79 2163.17 1165.79ZM2171.99 1189.06 2171.99 1207.39 2167.4 1207.39 2167.4 1189.06ZM2171.99 1221.14 2171.99 1239.47 2167.4 1239.47 2167.4 1221.14ZM2171.99 1253.22 2171.99 1271.56 2167.4 1271.56 2167.4 1253.22ZM2171.99 1285.31 2171.99 1303.64 2167.4 1303.64 2167.4 1285.31ZM2171.99 1317.39 2171.99 1335.72 2167.4 1335.72 2167.4 1317.39ZM2171.99 1349.47 2171.99 1367.81 2167.4 1367.81 2167.4 1349.47ZM2171.99 1381.56 2171.99 1399.89 2167.4 1399.89 2167.4 1381.56ZM2171.99 1413.64 2171.99 1420.95 2167.4 1420.95 2167.4 1413.64ZM1879 1177.25 1851.5 1163.5 1879 1149.75ZM2183.44 1416.37 2169.69 1443.87 2155.94 1416.37Z" fill="#006600"/><path d="M3181.94 1582.69 3181.87 1564.35 3186.45 1564.34 3186.52 1582.67ZM3181.82 1550.6 3181.76 1532.27 3186.34 1532.25 3186.41 1550.59ZM3181.71 1518.52 3181.64 1500.19 3186.23 1500.17 3186.29 1518.5ZM3181.59 1486.44 3181.53 1468.1 3186.11 1468.09 3186.18 1486.42ZM3181.48 1454.35 3181.42 1436.02 3186 1436 3186.06 1454.34ZM3181.37 1422.27 3181.3 1403.94 3185.89 1403.92 3185.95 1422.25ZM3197.96 1578.05 3184.31 1605.59 3170.46 1578.14ZM3169.85 1405.05 3183.5 1377.5 3197.35 1404.95Z" fill="#006600"/><path d="M2.29177 22.9167 2.29185 41.25-2.29149 41.25-2.29157 22.9167ZM2.29191 55 2.29193 59.7219-2.29141 59.7219-2.29143 55ZM-13.7499 27.5001 0 0 13.7501 27.4999ZM13.7502 55.1385 0.000360892 82.6386-13.7498 55.1386Z" fill="#006600" transform="matrix(1 0 0 -1 3183.5 1853.14)"/><path d="M2.51934 22.8928 2.70158 41.2252-1.88153 41.2707-2.06376 22.9383ZM2.83825 54.9745 3.02048 73.3069-1.56263 73.3525-1.74486 55.0201ZM3.15715 87.0563 3.33939 105.389-1.24372 105.434-1.42595 87.1018ZM3.47606 119.138 3.65829 137.47-0.924815 137.516-1.10705 119.184ZM3.79497 151.22 3.85415 157.174-0.728956 157.219-0.788141 151.265ZM-13.476 27.6353 0 0 14.0227 27.362ZM15.2664 152.477 1.79039 180.112-12.2323 152.75Z" fill="#006600" transform="matrix(1 0 0 -1 3182.5 2165.61)"/><rect x="1708.5" y="82.5" width="2058" height="587" stroke="#000000" stroke-width="6.875" stroke-miterlimit="8" fill="none"/><text font-family="Segoe UI,Segoe UI_MSFontService,sans-serif" font-weight="700" font-size="55" transform="matrix(1 0 0 1 1740.54 152)">Cloud Services</text><g filter="url(#fx0)" transform="translate(1057 1753)"><g><path d="M22 73.875C22 45.1561 45.2811 21.8749 73.9999 21.8749 102.719 21.8749 126 45.1561 126 73.875 126 102.594 102.719 125.875 73.9999 125.875 45.2811 125.875 22 102.594 22 73.875Z" fill="#006600" fill-rule="evenodd"/></g></g><g clip-path="url(#clip16)" filter="url(#fx1)" transform="translate(1055 1747)"><g><path d="M22.625 0 17.5 0 17.5-38.7187C17.1042-38.3229 16.526-37.8698 15.7656-37.3594 15.0052-36.849 14.151-36.3437 13.2031-35.8437 12.2552-35.3437 11.2552-34.875 10.2031-34.4375 9.15104-34 8.125-33.6562 7.125-33.4062L7.125-38.5937C8.25-38.9062 9.44271-39.3281 10.7031-39.8594 11.9635-40.3906 13.2031-40.9844 14.4219-41.6406 15.6406-42.2969 16.7917-42.9844 17.875-43.7031 18.9583-44.4219 19.8958-45.125 20.6875-45.8125L22.625-45.8125Z" fill="#FFFFFF" transform="matrix(1 0 0 1 60.0618 103)"/></g></g><path d="M1079 1820C1079 1791.28 1102.28 1768 1131 1768 1159.72 1768 1183 1791.28 1183 1820 1183 1848.72 1159.72 1872 1131 1872 1102.28 1872 1079 1848.72 1079 1820Z" fill="#006600" fill-rule="evenodd"/><text fill="#FFFFFF" font-family="Segoe UI,Segoe UI_MSFontService,sans-serif" font-weight="400" font-size="64" transform="matrix(1 0 0 1 1115.06 1843)">1</text><g filter="url(#fx2)" transform="translate(3108 2150)"><g><path d="M21.9998 73.8751C21.9998 45.1562 45.281 21.875 73.9998 21.875 102.719 21.875 126 45.1562 126 73.8751 126 102.594 102.719 125.875 73.9998 125.875 45.281 125.875 21.9998 102.594 21.9998 73.8751Z" fill="#006600" fill-rule="evenodd"/></g></g><g clip-path="url(#clip17)" filter="url(#fx3)" transform="translate(3087 2144)"><g><path d="M24.125-33.0625C24.125-34.4375 23.9115-35.6354 23.4844-36.6562 23.0573-37.6771 22.474-38.526 21.7344-39.2031 20.9948-39.8802 20.125-40.3854 19.125-40.7187 18.125-41.0521 17.0417-41.2187 15.875-41.2187 14.875-41.2187 13.8958-41.0833 12.9375-40.8125 11.9792-40.5417 11.0469-40.1667 10.1406-39.6875 9.23437-39.2083 8.35937-38.6354 7.51562-37.9687 6.67187-37.3021 5.88542-36.5625 5.15625-35.75L5.15625-41.25C6.59375-42.6458 8.20312-43.7135 9.98437-44.4531 11.7656-45.1927 13.9375-45.5625 16.5-45.5625 18.3333-45.5625 20.0312-45.2969 21.5937-44.7656 23.1562-44.2344 24.5104-43.4583 25.6562-42.4375 26.8021-41.4167 27.7031-40.1562 28.3594-38.6562 29.0156-37.1562 29.3437-35.4375 29.3437-33.5 29.3437-31.7292 29.1406-30.125 28.7344-28.6875 28.3281-27.25 27.7135-25.8958 26.8906-24.625 26.0677-23.3542 25.0312-22.1354 23.7812-20.9687 22.5312-19.8021 21.0625-18.6146 19.375-17.4062 17.2708-15.9062 15.5365-14.625 14.1719-13.5625 12.8073-12.5 11.724-11.5052 10.9219-10.5781 10.1198-9.65104 9.55729-8.72396 9.23437-7.79687 8.91146-6.86979 8.75-5.80208 8.75-4.59375L31.0625-4.59375 31.0625 0 3.40625 0 3.40625-2.21875C3.40625-4.13542 3.61458-5.82292 4.03125-7.28125 4.44792-8.73958 5.13542-10.125 6.09375-11.4375 7.05208-12.75 8.30729-14.0625 9.85937-15.375 11.4115-16.6875 13.3125-18.1667 15.5625-19.8125 17.1875-20.9792 18.5469-22.0937 19.6406-23.1562 20.7344-24.2187 21.6146-25.2812 22.2812-26.3437 22.9479-27.4062 23.4219-28.4844 23.7031-29.5781 23.9844-30.6719 24.125-31.8333 24.125-33.0625ZM42.9792-4.625 42.8542-4.625 42.8542 0 37.7292 0 37.7292-47.375 42.8542-47.375 42.8542-26.375 42.9792-26.375C45.5-30.625 49.1875-32.75 54.0417-32.75 58.1458-32.75 61.3594-31.3177 63.6823-28.4531 66.0052-25.5885 67.1667-21.75 67.1667-16.9375 67.1667-11.5833 65.8646-7.29687 63.2604-4.07812 60.6562-0.859375 57.0937 0.75 52.5729 0.75 48.3437 0.75 45.1458-1.04167 42.9792-4.625ZM42.8542-17.5312 42.8542-13.0625C42.8542-10.4167 43.7135-8.17187 45.4323-6.32812 47.151-4.48438 49.3333-3.5625 51.9792-3.5625 55.0833-3.5625 57.5156-4.75 59.276-7.125 61.0365-9.5 61.9167-12.8021 61.9167-17.0312 61.9167-20.5937 61.0937-23.3854 59.4479-25.4062 57.8021-27.4271 55.5729-28.4375 52.7604-28.4375 49.7812-28.4375 47.3854-27.401 45.5729-25.3281 43.7604-23.2552 42.8542-20.6562 42.8542-17.5312Z" fill="#FFFFFF" transform="matrix(1 0 0 1 60.4448 103)"/></g></g><path d="M3130 2217C3130 2188.28 3153.28 2165 3182 2165 3210.72 2165 3234 2188.28 3234 2217 3234 2245.72 3210.72 2269 3182 2269 3153.28 2269 3130 2245.72 3130 2217Z" fill="#006600" fill-rule="evenodd"/><text fill="#FFFFFF" font-family="Segoe UI,Segoe UI_MSFontService,sans-serif" font-weight="400" font-size="64" transform="matrix(1 0 0 1 3147.44 2240)">2b</text><g filter="url(#fx4)" transform="translate(2838 1619)"><g><path d="M22 73.875C22 45.1561 45.2812 21.8749 74.0001 21.8749 102.719 21.8749 126 45.1561 126 73.875 126 102.594 102.719 125.875 74.0001 125.875 45.2812 125.875 22 102.594 22 73.875Z" fill="#006600" fill-rule="evenodd"/></g></g><g clip-path="url(#clip18)" filter="url(#fx5)" transform="translate(2835 1613)"><g><path d="M29.7812-12.6875C29.7812-10.6667 29.401-8.82812 28.6406-7.17187 27.8802-5.51562 26.8073-4.09896 25.4219-2.92187 24.0365-1.74479 22.375-0.833333 20.4375-0.1875 18.5 0.458333 16.3646 0.78125 14.0312 0.78125 9.76042 0.78125 6.36458-0.0312501 3.84375-1.65625L3.84375-7.15625C6.86458-4.78125 10.3229-3.59375 14.2187-3.59375 15.7812-3.59375 17.1927-3.79167 18.4531-4.1875 19.7135-4.58333 20.7969-5.15625 21.7031-5.90625 22.6094-6.65625 23.3073-7.5625 23.7969-8.625 24.2865-9.6875 24.5312-10.8854 24.5312-12.2187 24.5312-18.0729 20.3646-21 12.0312-21L8.3125-21 8.3125-25.3437 11.8437-25.3437C19.2187-25.3437 22.9062-28.0937 22.9062-33.5937 22.9062-38.6771 20.0937-41.2187 14.4687-41.2187 11.3021-41.2187 8.33333-40.1562 5.5625-38.0312L5.5625-43C8.41667-44.7083 11.8125-45.5625 15.75-45.5625 17.625-45.5625 19.3229-45.3021 20.8437-44.7812 22.3646-44.2604 23.6667-43.5312 24.75-42.5937 25.8333-41.6562 26.6719-40.5312 27.2656-39.2187 27.8594-37.9062 28.1562-36.4583 28.1562-34.875 28.1562-28.9792 25.1771-25.1875 19.2187-23.5L19.2187-23.375C20.7396-23.2083 22.1458-22.8385 23.4375-22.2656 24.7292-21.6927 25.8437-20.9479 26.7812-20.0312 27.7187-19.1146 28.4531-18.0365 28.9844-16.7969 29.5156-15.5573 29.7812-14.1875 29.7812-12.6875Z" fill="#FFFFFF" transform="matrix(1 0 0 1 60.3994 103)"/></g></g><path d="M2860 1686C2860 1657.28 2883.28 1634 2912 1634 2940.72 1634 2964 1657.28 2964 1686 2964 1714.72 2940.72 1738 2912 1738 2883.28 1738 2860 1714.72 2860 1686Z" fill="#006600" fill-rule="evenodd"/><text fill="#FFFFFF" font-family="Segoe UI,Segoe UI_MSFontService,sans-serif" font-weight="400" font-size="64" transform="matrix(1 0 0 1 2895.4 1710)">3</text><g filter="url(#fx6)" transform="translate(1724 1095)"><g><path d="M21.9999 74.3751C21.9999 45.3801 45.505 21.875 74.5 21.875 103.495 21.875 127 45.3801 127 74.3751 127 103.37 103.495 126.875 74.5 126.875 45.505 126.875 21.9999 103.37 21.9999 74.3751Z" fill="#006600" fill-rule="evenodd"/></g></g><g clip-path="url(#clip19)" filter="url(#fx7)" transform="translate(1722 1090)"><g><path d="M26.5625-44.8125 26.5625-15.2187 32.3125-15.2187 32.3125-10.5312 26.5625-10.5312 26.5625 0 21.5 0 21.5-10.5312 0.4375-10.5312 0.4375-14.9687C2.39583-17.1771 4.375-19.5365 6.375-22.0469 8.375-24.5573 10.2865-27.1042 12.1094-29.6875 13.9323-32.2708 15.6198-34.849 17.1719-37.4219 18.724-39.9948 20.0312-42.4583 21.0937-44.8125ZM6.21875-15.2187 21.5-15.2187 21.5-37.1562C19.9375-34.4271 18.4583-31.9896 17.0625-29.8437 15.6667-27.6979 14.3385-25.75 13.0781-24 11.8177-22.25 10.6146-20.6667 9.46875-19.25 8.32292-17.8333 7.23958-16.4896 6.21875-15.2187Z" fill="#FFFFFF" transform="matrix(1 0 0 1 60.1475 103)"/></g></g><path d="M1746 1162.5C1746 1133.51 1769.51 1110 1798.5 1110 1827.49 1110 1851 1133.51 1851 1162.5 1851 1191.5 1827.49 1215 1798.5 1215 1769.51 1215 1746 1191.5 1746 1162.5Z" fill="#006600" fill-rule="evenodd"/><text fill="#FFFFFF" font-family="Segoe UI,Segoe UI_MSFontService,sans-serif" font-weight="400" font-size="64" transform="matrix(1 0 0 1 1782.15 1186)">4</text><g filter="url(#fx8)" transform="translate(3109 1258)"><g><path d="M21.9998 73.875C21.9998 45.1561 45.281 21.8749 73.9998 21.8749 102.719 21.8749 126 45.1561 126 73.875 126 102.594 102.719 125.875 73.9998 125.875 45.281 125.875 21.9998 102.594 21.9998 73.875Z" fill="#006600" fill-rule="evenodd"/></g></g><g clip-path="url(#clip20)" filter="url(#fx9)" transform="translate(3106 1252)"><g><path d="M30.2812-13.6875C30.2812-11.5 29.9062-9.52083 29.1562-7.75 28.4062-5.97917 27.3385-4.45833 25.9531-3.1875 24.5677-1.91667 22.8958-0.9375 20.9375-0.25 18.9792 0.4375 16.8021 0.78125 14.4062 0.78125 10.2396 0.78125 7.14583 0.15625 5.125-1.09375L5.125-6.53125C8.16667-4.57292 11.2812-3.59375 14.4687-3.59375 16.0937-3.59375 17.5573-3.83333 18.8594-4.3125 20.1615-4.79167 21.2708-5.45833 22.1875-6.3125 23.1042-7.16667 23.8073-8.19792 24.2969-9.40625 24.7865-10.6146 25.0312-11.9375 25.0312-13.375 25.0312-16.2917 24.0521-18.5781 22.0937-20.2344 20.1354-21.8906 17.2917-22.7187 13.5625-22.7187 12.9583-22.7187 12.3229-22.7083 11.6562-22.6875 10.9896-22.6667 10.3229-22.6406 9.65625-22.6094 8.98958-22.5781 8.33854-22.5417 7.70312-22.5 7.06771-22.4583 6.48958-22.4062 5.96875-22.3437L7.5-44.8125 28.2187-44.8125 28.2187-40.1875 11.9375-40.1875 11.0312-27.0312C11.6979-27.0729 12.4062-27.1094 13.1562-27.1406 13.9062-27.1719 14.5729-27.1875 15.1562-27.1875 17.5312-27.1875 19.6562-26.875 21.5312-26.25 23.4062-25.625 24.9948-24.7344 26.2969-23.5781 27.599-22.4219 28.5885-21.0052 29.2656-19.3281 29.9427-17.651 30.2812-15.7708 30.2812-13.6875Z" fill="#FFFFFF" transform="matrix(1 0 0 1 60.4172 103)"/></g></g><path d="M3131 1325C3131 1296.28 3154.28 1273 3183 1273 3211.72 1273 3235 1296.28 3235 1325 3235 1353.72 3211.72 1377 3183 1377 3154.28 1377 3131 1353.72 3131 1325Z" fill="#006600" fill-rule="evenodd"/><text fill="#FFFFFF" font-family="Segoe UI,Segoe UI_MSFontService,sans-serif" font-weight="400" font-size="64" transform="matrix(1 0 0 1 3166.42 1348)">5</text><g filter="url(#fx10)" transform="translate(2440 1071)"><g><path d="M22 73.875C22 45.1561 45.2812 21.8749 74.0001 21.8749 102.719 21.8749 126 45.1561 126 73.875 126 102.594 102.719 125.875 74.0001 125.875 45.2812 125.875 22 102.594 22 73.875Z" fill="#006600" fill-rule="evenodd"/></g></g><g clip-path="url(#clip21)" filter="url(#fx11)" transform="translate(2437 1065)"><g><path d="M31.9375-14.2187C31.9375-12.0312 31.5833-10.0208 30.875-8.1875 30.1667-6.35417 29.1875-4.77083 27.9375-3.4375 26.6875-2.10417 25.1979-1.06771 23.4687-0.328125 21.7396 0.411458 19.8646 0.78125 17.8437 0.78125 15.5937 0.78125 13.5781 0.3125 11.7969-0.625 10.0156-1.5625 8.50521-2.91146 7.26562-4.67187 6.02604-6.43229 5.08333-8.58333 4.4375-11.125 3.79167-13.6667 3.46875-16.5312 3.46875-19.7187 3.46875-23.6146 3.90104-27.151 4.76562-30.3281 5.63021-33.5052 6.85937-36.224 8.45312-38.4844 10.0469-40.7448 11.9687-42.4896 14.2187-43.7187 16.4687-44.9479 18.9792-45.5625 21.75-45.5625 24.8333-45.5625 27.3125-45.1354 29.1875-44.2812L29.1875-39.4375C26.875-40.625 24.4375-41.2187 21.875-41.2187 19.875-41.2187 18.0729-40.7708 16.4687-39.875 14.8646-38.9792 13.4896-37.7135 12.3437-36.0781 11.1979-34.4427 10.3177-32.4687 9.70312-30.1562 9.08854-27.8437 8.78125-25.2708 8.78125-22.4375L8.90625-22.4375C10.9687-26.1667 14.375-28.0312 19.125-28.0312 21.0833-28.0312 22.849-27.6979 24.4219-27.0312 25.9948-26.3646 27.3385-25.4219 28.4531-24.2031 29.5677-22.9844 30.4271-21.5312 31.0312-19.8437 31.6354-18.1562 31.9375-16.2812 31.9375-14.2187ZM26.6875-13.5625C26.6875-15.125 26.4896-16.5312 26.0937-17.7812 25.6979-19.0312 25.1302-20.0937 24.3906-20.9687 23.651-21.8437 22.7396-22.5156 21.6562-22.9844 20.5729-23.4531 19.3437-23.6875 17.9687-23.6875 16.6979-23.6875 15.5208-23.4479 14.4375-22.9687 13.3542-22.4896 12.4167-21.8385 11.625-21.0156 10.8333-20.1927 10.2135-19.2344 9.76562-18.1406 9.31771-17.0469 9.09375-15.8854 9.09375-14.6562 9.09375-13.1146 9.3125-11.6719 9.75-10.3281 10.1875-8.98437 10.8021-7.8125 11.5937-6.8125 12.3854-5.8125 13.3281-5.02604 14.4219-4.45312 15.5156-3.88021 16.7292-3.59375 18.0625-3.59375 19.3542-3.59375 20.5312-3.83854 21.5937-4.32812 22.6562-4.81771 23.5625-5.5 24.3125-6.375 25.0625-7.25 25.6458-8.29687 26.0625-9.51562 26.4792-10.7344 26.6875-12.0833 26.6875-13.5625Z" fill="#FFFFFF" transform="matrix(1 0 0 1 60.6047 103)"/></g></g><path d="M2462 1138C2462 1109.28 2485.28 1086 2514 1086 2542.72 1086 2566 1109.28 2566 1138 2566 1166.72 2542.72 1190 2514 1190 2485.28 1190 2462 1166.72 2462 1138Z" fill="#006600" fill-rule="evenodd"/><text fill="#FFFFFF" font-family="Segoe UI,Segoe UI_MSFontService,sans-serif" font-weight="400" font-size="64" transform="matrix(1 0 0 1 2497.6 1161)">6</text><g filter="url(#fx12)" transform="translate(3106 700)"><g><path d="M22.0002 73.8751C22.0002 45.1562 45.2814 21.875 74.0001 21.875 102.719 21.875 126 45.1562 126 73.8751 126 102.594 102.719 125.875 74.0001 125.875 45.2814 125.875 22.0002 102.594 22.0002 73.8751Z" fill="#006600" fill-rule="evenodd"/></g></g><g clip-path="url(#clip22)" filter="url(#fx13)" transform="translate(3103 694)"><g><path d="M31.5625-41.8437C30.875-40.6562 30.0469-39.1771 29.0781-37.4062 28.1094-35.6354 27.0833-33.6458 26-31.4375 24.9167-29.2292 23.8125-26.8542 22.6875-24.3125 21.5625-21.7708 20.5104-19.1458 19.5312-16.4375 18.5521-13.7292 17.6927-10.9844 16.9531-8.20312 16.2135-5.42187 15.6771-2.6875 15.3437 0L9.84375 0C10.2187-2.66667 10.7969-5.39062 11.5781-8.17187 12.3594-10.9531 13.2448-13.6823 14.2344-16.3594 15.224-19.0365 16.2708-21.6146 17.375-24.0937 18.4792-26.5729 19.5521-28.8542 20.5937-30.9375 21.6354-33.0208 22.5885-34.8594 23.4531-36.4531 24.3177-38.0469 25.0104-39.2917 25.5312-40.1875L3.0625-40.1875 3.0625-44.8125 31.5625-44.8125Z" fill="#FFFFFF" transform="matrix(1 0 0 1 60.9944 103)"/></g></g><path d="M3128 767C3128 738.281 3151.28 715 3180 715 3208.72 715 3232 738.281 3232 767 3232 795.719 3208.72 819 3180 819 3151.28 819 3128 795.719 3128 767Z" fill="#006600" fill-rule="evenodd"/><text fill="#FFFFFF" font-family="Segoe UI,Segoe UI_MSFontService,sans-serif" font-weight="400" font-size="64" transform="matrix(1 0 0 1 3163.99 791)">7</text><g filter="url(#fx14)" transform="translate(3106 172)"><g><path d="M22.0002 73.8751C22.0002 45.1562 45.2814 21.875 74.0001 21.875 102.719 21.875 126 45.1562 126 73.8751 126 102.594 102.719 125.875 74.0001 125.875 45.2814 125.875 22.0002 102.594 22.0002 73.8751Z" fill="#006600" fill-rule="evenodd"/></g></g><g clip-path="url(#clip23)" filter="url(#fx15)" transform="translate(3103 166)"><g><path d="M2.8125-12.5C2.8125-13.6875 3-14.8802 3.375-16.0781 3.75-17.276 4.28646-18.3958 4.98437-19.4375 5.68229-20.4792 6.54687-21.4271 7.57812-22.2812 8.60937-23.1354 9.78125-23.8125 11.0937-24.3125 9.15625-25.3958 7.61458-26.7865 6.46875-28.4844 5.32292-30.1823 4.75-32.0625 4.75-34.125 4.75-35.7708 5.06771-37.2917 5.70312-38.6875 6.33854-40.0833 7.21875-41.2917 8.34375-42.3125 9.46875-43.3333 10.8021-44.1302 12.3437-44.7031 13.8854-45.276 15.5521-45.5625 17.3437-45.5625 19.1562-45.5625 20.8333-45.2708 22.375-44.6875 23.9167-44.1042 25.25-43.3021 26.375-42.2812 27.5-41.2604 28.375-40.0521 29-38.6562 29.625-37.2604 29.9375-35.75 29.9375-34.125 29.9375-32.0625 29.3646-30.1823 28.2187-28.4844 27.0729-26.7865 25.5521-25.3958 23.6562-24.3125 24.9479-23.8125 26.1042-23.1354 27.125-22.2812 28.1458-21.4271 29.0052-20.4792 29.7031-19.4375 30.401-18.3958 30.9375-17.276 31.3125-16.0781 31.6875-14.8802 31.875-13.6875 31.875-12.5 31.875-10.5417 31.5208-8.75 30.8125-7.125 30.1042-5.5 29.1094-4.10937 27.8281-2.95312 26.5469-1.79687 25.0156-0.895833 23.2344-0.25 21.4531 0.395833 19.4896 0.71875 17.3437 0.71875 15.2187 0.71875 13.2708 0.395833 11.5-0.25 9.72917-0.895833 8.19792-1.79687 6.90625-2.95312 5.61458-4.10937 4.60937-5.5 3.89062-7.125 3.17187-8.75 2.8125-10.5417 2.8125-12.5ZM8.375-12.9375C8.375-11.5417 8.58854-10.2812 9.01562-9.15625 9.44271-8.03125 10.0469-7.07292 10.8281-6.28125 11.6094-5.48958 12.5573-4.88021 13.6719-4.45312 14.7865-4.02604 16.0208-3.8125 17.375-3.8125 18.6875-3.8125 19.8958-4.03125 21-4.46875 22.1042-4.90625 23.0573-5.52083 23.8594-6.3125 24.6615-7.10417 25.2865-8.0625 25.7344-9.1875 26.1823-10.3125 26.4062-11.5625 26.4062-12.9375 26.4062-14.1875 26.1927-15.3594 25.7656-16.4531 25.3385-17.5469 24.7292-18.5104 23.9375-19.3437 23.1458-20.1771 22.1979-20.8333 21.0937-21.3125 19.9896-21.7917 18.75-22.0312 17.375-22.0312 16.0833-22.0312 14.8906-21.8073 13.7969-21.3594 12.7031-20.9115 11.7552-20.2865 10.9531-19.4844 10.151-18.6823 9.52083-17.724 9.0625-16.6094 8.60417-15.4948 8.375-14.2708 8.375-12.9375ZM9.96875-33.7187C9.96875-32.6562 10.1615-31.6719 10.5469-30.7656 10.9323-29.8594 11.4635-29.0677 12.1406-28.3906 12.8177-27.7135 13.6042-27.1823 14.5-26.7969 15.3958-26.4115 16.3542-26.2187 17.375-26.2187 18.3958-26.2187 19.3594-26.4167 20.2656-26.8125 21.1719-27.2083 21.9583-27.7448 22.625-28.4219 23.2917-29.099 23.8229-29.8906 24.2187-30.7969 24.6146-31.7031 24.8125-32.6771 24.8125-33.7187 24.8125-34.8021 24.6198-35.8021 24.2344-36.7187 23.849-37.6354 23.3229-38.4271 22.6562-39.0937 21.9896-39.7604 21.2031-40.2865 20.2969-40.6719 19.3906-41.0573 18.4167-41.25 17.375-41.25 16.2708-41.25 15.2656-41.0521 14.3594-40.6562 13.4531-40.2604 12.6719-39.724 12.0156-39.0469 11.3594-38.3698 10.8542-37.5729 10.5-36.6562 10.1458-35.7396 9.96875-34.7604 9.96875-33.7187Z" fill="#FFFFFF" transform="matrix(1 0 0 1 60.9944 104)"/></g></g><path d="M3128 239C3128 210.281 3151.28 187 3180 187 3208.72 187 3232 210.281 3232 239 3232 267.719 3208.72 291 3180 291 3151.28 291 3128 267.719 3128 239Z" fill="#006600" fill-rule="evenodd"/><text fill="#FFFFFF" font-family="Segoe UI,Segoe UI_MSFontService,sans-serif" font-weight="400" font-size="64" transform="matrix(1 0 0 1 3163.99 263)">8</text><text fill="#7F7F7F" font-family="Aptos,Aptos_MSFontService,sans-serif" font-style="italic" font-weight="400" font-size="46" transform="matrix(1 0 0 1 995.338 2220)">Vehicle Electric/Electronics</text><g><g><g><g clip-path="url(#clip24)"><path d="M388.002 37.4176 387.575 37.4176C372.75 32.3573 357.926 27.2257 342.887 23.092 335.048 20.8826 327.136 18.9582 319.225 17.3903 317.23 16.9626 315.234 16.6775 313.238 16.2499 312.241 16.1074 311.243 15.8936 310.245 15.751L307.252 15.3234 304.258 14.8958C303.26 14.7532 302.263 14.6819 301.265 14.5394 299.269 14.3256 297.274 14.0405 295.278 13.898L292.285 13.6129C291.287 13.5416 290.289 13.399 289.291 13.399 287.296 13.3278 285.3 13.1852 283.304 13.114L277.318 13.0427C275.322 13.114 273.326 13.1852 271.331 13.2565 263.348 13.7554 255.437 14.967 247.669 16.8914 239.9 18.8157 232.203 21.3102 224.648 24.4461 217.093 27.5108 209.752 31.0744 202.482 35.0656 200.701 36.0634 198.848 36.9899 197.066 38.059 195.284 39.1281 193.431 40.1259 191.649 41.195 189.867 42.264 188.086 43.3331 186.304 44.4022L180.958 47.7519C177.395 49.9614 173.689 52.1708 169.911 54.0951 166.134 56.0194 162.143 57.7299 158.009 58.8703L156.441 59.2979 154.873 59.6543C153.875 59.9394 152.806 60.0819 151.808 60.2957 149.742 60.6521 147.675 60.9372 145.608 61.2223 141.474 61.7212 137.412 62.0062 133.349 62.2913 129.287 62.5764 125.295 62.8615 121.375 63.3604L109.331 65.0709C105.339 65.6411 101.277 66.2113 97.2857 66.8527 93.2944 67.4941 89.3032 68.2069 85.3833 69.0621 77.4722 70.7014 69.6323 72.8395 62.0775 75.9755 54.5227 79.0401 47.3243 83.2452 41.195 89.1607 38.1303 92.1541 35.422 95.5751 33.2125 99.4238 31.0031 103.272 29.2926 107.549 28.1523 112.039 29.0075 107.477 30.433 103.059 32.4998 98.9249 34.5667 94.8624 37.1325 91.085 40.1259 87.8065 43.1193 84.5281 46.469 81.7485 50.0326 79.3252 53.5962 76.902 57.3023 74.8351 61.0797 72.9821 64.8571 71.2003 68.777 69.7036 72.697 68.3494 76.6169 66.9953 80.6081 65.8549 84.5993 64.8571 88.5905 63.8593 92.5817 63.004 96.6442 62.2201 100.635 61.4361 104.698 60.7234 108.689 60.0106L120.734 57.8725C124.796 57.2311 128.93 56.8034 132.993 56.4471 137.055 56.0907 141.046 55.7343 145.038 55.1642 147.033 54.8791 148.958 54.594 150.953 54.2376 151.951 54.0238 152.877 53.8813 153.875 53.5962L155.301 53.2398 156.726 52.8122C158.579 52.242 160.432 51.6006 162.285 50.8166 164.138 50.0326 165.92 49.1774 167.702 48.2508 171.266 46.3978 174.829 44.1884 178.321 41.9789L183.667 38.6292C185.449 37.4888 187.302 36.4198 189.083 35.3507 190.865 34.2103 192.718 33.2125 194.571 32.1435 196.424 31.0744 198.277 30.0766 200.13 29.0788 207.543 25.0876 215.098 21.4527 222.866 18.3168 230.635 15.2521 238.546 12.6151 246.671 10.8333 254.725 8.98022 262.992 7.83987 271.188 7.55478 273.255 7.48351 275.322 7.48351 277.389 7.41224L283.589 7.62606C285.656 7.7686 287.652 7.91114 289.719 8.12496 290.717 8.19623 291.786 8.33877 292.784 8.41004L295.848 8.7664C297.915 8.98022 299.911 9.33657 301.906 9.62166 302.904 9.7642 303.902 9.90674 304.971 10.1206L307.964 10.6907 310.958 11.2609C311.956 11.4747 312.953 11.6885 313.951 11.9023 315.947 12.33 317.942 12.7576 319.938 13.2565 327.92 15.1808 335.832 17.4615 343.671 20.0986 358.71 25.0163 373.463 31.0031 388.002 37.4176Z" transform="matrix(1 0 0 1.0022 1017.18 768)"/></g><g><path d="M101.776 88.3054 163.141 71.913C169.27 70.2737 175.684 69.2759 182.241 68.8483L441.028 53.2398 101.776 88.3054Z" transform="matrix(1 0 0 1.0022 1017.18 768)"/></g><path d="M20.2411 86.4524C32.0722 61.0084 61.0084 48.7497 87.5927 56.5896 86.9513 56.3045 86.3811 55.9482 85.7397 55.6631 57.8725 42.6917 24.8025 54.7365 11.8311 82.5324-1.06907 110.328 11.0471 143.398 38.9143 156.298 39.5557 156.584 40.1972 156.869 40.7673 157.082 17.6753 141.902 8.41004 111.896 20.2411 86.4524Z" transform="matrix(1 0 0 1.0022 1017.18 768)"/><path d="M291.002 117.242C291.002 118.81 290.788 120.164 290.432 121.447 290.075 122.658 289.505 123.799 288.864 124.725 288.222 125.652 287.438 126.507 286.583 127.148 285.728 127.79 284.801 128.36 283.875 128.788 282.948 129.215 282.022 129.5 281.024 129.714 280.097 129.928 279.171 129.999 278.315 129.999L248.025 129.999 248.025 122.159 278.315 122.159C279.812 122.159 281.024 121.732 281.808 120.805 282.663 119.95 283.091 118.738 283.091 117.242 283.091 116.529 282.948 115.888 282.734 115.246 282.52 114.605 282.164 114.106 281.808 113.678 281.38 113.25 280.881 112.894 280.311 112.68 279.741 112.466 279.028 112.324 278.315 112.324L260.284 112.324C259.001 112.324 257.647 112.11 256.15 111.611 254.653 111.184 253.299 110.4 252.087 109.402 250.805 108.404 249.807 107.05 248.951 105.482 248.096 103.843 247.669 101.847 247.669 99.4951 247.669 97.1431 248.096 95.1475 248.951 93.5083 249.807 91.869 250.805 90.5861 252.087 89.5883 253.37 88.5905 254.725 87.8065 256.15 87.3789 257.647 86.9513 259.001 86.6662 260.284 86.6662L287.011 86.6662 287.011 94.5061 260.284 94.5061C258.787 94.5061 257.647 94.9337 256.791 95.8602 255.936 96.7868 255.508 97.9984 255.508 99.4238 255.508 100.921 255.936 102.132 256.791 102.987 257.647 103.843 258.787 104.27 260.284 104.27L278.315 104.27 278.387 104.27C279.242 104.27 280.097 104.413 281.095 104.627 282.022 104.84 282.948 105.197 283.946 105.624 284.872 106.052 285.799 106.622 286.583 107.264 287.438 107.905 288.151 108.76 288.864 109.687 289.505 110.613 290.004 111.754 290.432 112.965 290.859 114.32 291.002 115.674 291.002 117.242Z" transform="matrix(1 0 0 1.0022 1017.18 768)"/><path d="M340.749 111.896C340.749 114.533 340.322 116.957 339.395 119.166 338.469 121.375 337.186 123.3 335.618 124.868 333.978 126.436 332.125 127.719 329.916 128.645 327.707 129.572 325.283 129.999 322.718 129.999L301.55 129.999C300.98 129.999 300.481 129.928 299.982 129.714 299.483 129.5 299.055 129.215 298.699 128.859 298.343 128.503 298.058 128.075 297.844 127.576 297.63 127.077 297.559 126.578 297.559 126.008L297.559 90.6574C297.559 90.0872 297.63 89.5883 297.844 89.0894 298.058 88.5905 298.343 88.1629 298.699 87.8065 299.055 87.4502 299.483 87.1651 299.982 86.9513 300.481 86.7375 300.98 86.6662 301.55 86.6662L322.718 86.6662C325.283 86.6662 327.707 87.0938 329.916 88.0204 332.125 88.9469 334.05 90.1585 335.618 91.7978 337.257 93.3657 338.469 95.2901 339.395 97.4995 340.322 99.7089 340.749 102.132 340.749 104.769L340.749 111.896ZM332.909 104.84C332.909 103.344 332.696 101.918 332.197 100.635 331.698 99.3525 330.985 98.2835 330.13 97.3569 329.203 96.4304 328.134 95.7889 326.851 95.2901 325.568 94.7912 324.214 94.5773 322.646 94.5773L305.327 94.5773 305.327 122.159 322.646 122.159C324.143 122.159 325.568 121.946 326.851 121.447 328.134 120.948 329.203 120.235 330.13 119.38 331.056 118.453 331.769 117.384 332.197 116.173 332.696 114.89 332.909 113.536 332.909 111.968L332.909 104.84Z" transform="matrix(1 0 0 1.0022 1017.18 768)"/><path d="M390.711 86.7375 370.256 128.503C369.899 129.144 369.472 129.643 368.83 130.071 368.189 130.427 367.476 130.641 366.763 130.641 366.051 130.641 365.338 130.427 364.697 130.071 364.055 129.643 363.556 129.144 363.2 128.503L342.745 86.7375 351.511 86.7375 366.692 117.883 381.944 86.7375 390.711 86.7375Z" transform="matrix(1 0 0 1.0022 1017.18 768)"/><path d="M47.4668 157.011 47.4668 141.403 57.5874 141.403 57.5874 144.325 51.1017 144.325 51.1017 147.532 57.2311 147.532 57.2311 150.454 51.1017 150.454 51.1017 154.089 57.8012 154.089 57.8012 157.082 47.4668 157.082 47.4668 157.011Z" transform="matrix(1 0 0 1.0022 1017.18 768)"/><path d="M64.7858 157.296C61.7212 157.296 58.9416 155.229 58.9416 151.523 58.9416 147.817 61.7924 145.75 64.8571 145.75 67.708 145.75 68.9909 146.891 68.9909 146.891L68.2069 149.599C67.9218 149.385 66.924 148.601 65.356 148.601 63.788 148.601 62.5764 149.67 62.5764 151.452 62.5764 153.234 63.7168 154.303 65.356 154.303 67.0665 154.303 68.2069 153.234 68.2069 153.234L69.0621 155.942C68.9196 156.013 67.708 157.296 64.7858 157.296Z" transform="matrix(1 0 0 1.0022 1017.18 768)"/><path d="M70.5588 157.011 70.5588 141.403 74.1937 141.403 74.1937 157.011 70.5588 157.011Z" transform="matrix(1 0 0 1.0022 1017.18 768)"/><path d="M78.47 144.61C77.2584 144.61 76.4031 143.897 76.4031 142.757 76.4031 141.617 77.2584 140.904 78.47 140.904 79.6816 140.904 80.5368 141.688 80.5368 142.757 80.5368 143.826 79.6816 144.61 78.47 144.61ZM76.6882 157.011 76.6882 145.893 80.323 145.893 80.323 157.011 76.6882 157.011Z" transform="matrix(1 0 0 1.0022 1017.18 768)"/><path d="M89.8734 157.296C88.2342 157.296 87.0226 156.655 86.3811 155.657L86.3811 161.145 82.7463 161.145 82.7463 145.893 86.1673 145.893 86.1673 147.318 86.2386 147.318C87.0226 146.32 88.2342 145.679 89.9447 145.679 93.1519 145.679 95.2188 148.174 95.2188 151.452 95.2188 154.731 93.1519 157.296 89.8734 157.296ZM88.8756 148.53C87.3076 148.53 86.3098 149.67 86.3098 151.452 86.3098 153.163 87.3789 154.374 88.8756 154.374 90.4436 154.374 91.5127 153.234 91.5127 151.452 91.5127 149.742 90.4436 148.53 88.8756 148.53Z" transform="matrix(1 0 0 1.0022 1017.18 768)"/><path d="M100.707 157.296C99.0674 157.296 97.2857 156.797 96.0028 155.586L97.3569 153.448C98.2835 154.232 99.7802 154.802 100.635 154.802 101.562 154.802 102.203 154.588 102.203 153.875 102.203 153.163 100.564 152.806 100.137 152.664 98.2835 152.165 96.6442 151.523 96.6442 149.243 96.6442 147.104 98.5686 145.75 100.849 145.75 103.201 145.75 104.484 146.606 105.126 147.104L103.985 149.243C103.344 148.744 102.061 148.174 101.206 148.174 100.35 148.174 99.8514 148.387 99.8514 148.958 99.8514 149.528 100.707 149.813 101.491 150.027 103.415 150.597 105.411 151.167 105.411 153.661 105.411 156.298 102.987 157.296 100.707 157.296Z" transform="matrix(1 0 0 1.0022 1017.18 768)"/><path d="M117.954 152.307 110.043 152.307C110.186 153.947 111.397 154.659 112.894 154.659 114.32 154.659 115.602 154.018 116.244 153.59L117.669 155.443C117.313 155.728 115.816 157.225 112.395 157.225 108.974 157.225 106.48 155.087 106.48 151.452 106.48 147.746 109.188 145.679 112.466 145.679 115.745 145.679 118.026 147.888 118.026 151.096 118.026 151.666 117.954 152.307 117.954 152.307ZM112.395 148.031C110.899 148.031 110.115 149.171 110.115 150.24L114.676 150.24C114.676 149.243 113.892 148.031 112.395 148.031Z" transform="matrix(1 0 0 1.0022 1017.18 768)"/><path d="M128.859 157.296C126.578 157.296 124.583 156.156 123.3 154.944L125.082 152.307C126.222 153.448 127.932 154.303 129.144 154.303 130.284 154.303 131.211 153.733 131.211 152.664 131.211 151.595 130.071 151.167 129.358 150.953 128.645 150.739 127.505 150.312 127.006 150.098 126.65 149.884 125.866 149.599 125.153 148.958 124.44 148.316 123.941 147.39 123.941 145.964 123.941 144.467 124.654 143.327 125.58 142.543 126.436 141.83 127.861 141.331 129.714 141.331 131.567 141.331 133.634 142.187 134.632 143.256L133.064 145.822C132.137 144.895 130.783 144.254 129.572 144.254 128.431 144.254 127.505 144.681 127.505 145.679 127.505 146.677 128.36 146.962 129.073 147.247 129.785 147.532 130.926 147.96 131.425 148.102 133.42 148.815 134.846 150.098 134.846 152.379 134.917 155.657 131.852 157.296 128.859 157.296Z" transform="matrix(1 0 0 1.0022 1017.18 768)"/><path d="M142.187 157.296C138.694 157.296 135.986 155.087 135.986 151.523 135.986 147.96 138.623 145.75 142.187 145.75 145.679 145.75 148.387 147.96 148.387 151.523 148.316 155.087 145.679 157.296 142.187 157.296ZM142.187 148.53C140.547 148.53 139.621 149.742 139.621 151.452 139.621 153.163 140.547 154.374 142.187 154.374 143.755 154.374 144.753 153.163 144.753 151.452 144.753 149.742 143.755 148.53 142.187 148.53Z" transform="matrix(1 0 0 1.0022 1017.18 768)"/><path d="M161.573 148.672 161.573 152.664C161.573 153.661 161.644 154.303 162.713 154.303 163.283 154.303 163.782 154.089 163.782 154.089L163.996 156.94C163.711 157.011 162.713 157.296 161.43 157.296 158.508 157.296 157.938 155.515 157.938 152.949L157.938 148.601 154.16 148.601 154.16 157.011 150.525 157.011 150.525 148.601 149.1 148.601 149.1 145.893 150.525 145.893 150.525 145.251C150.525 142.614 151.808 141.118 154.517 141.118 155.942 141.118 157.011 141.403 157.011 141.403L156.797 143.897C156.797 143.897 156.085 143.683 155.443 143.683 154.374 143.683 154.089 144.325 154.089 145.109L154.089 145.822 157.866 145.822 157.866 142.828 161.501 142.828 161.501 145.822 163.996 145.822 163.996 148.53 161.573 148.53 161.573 148.672Z" transform="matrix(1 0 0 1.0022 1017.18 768)"/><path d="M179.177 157.011 175.756 157.011 173.617 150.169 171.408 157.011 167.987 157.011 164.352 145.893 167.987 145.893 169.983 153.02 172.121 145.893 175.114 145.893 177.252 153.02 179.248 145.893 182.883 145.893 179.177 157.011Z" transform="matrix(1 0 0 1.0022 1017.18 768)"/><path d="M190.723 157.011 190.651 155.871C190.152 156.37 189.297 157.296 187.444 157.296 185.449 157.296 183.382 156.227 183.382 153.733 183.382 151.238 185.662 150.383 187.729 150.312L190.509 150.169 190.509 149.955C190.509 148.815 189.654 148.174 188.228 148.174 186.803 148.174 185.377 148.815 184.807 149.171L183.881 146.819C184.807 146.32 186.589 145.679 188.656 145.679 192.148 145.679 194.144 147.104 194.144 150.739L194.144 157.011 190.723 157.011ZM188.798 152.236C187.658 152.307 187.017 152.735 187.017 153.59 187.017 154.445 187.729 154.944 188.727 154.944 189.725 154.944 190.366 154.303 190.58 153.947L190.58 152.093 188.798 152.236Z" transform="matrix(1 0 0 1.0022 1017.18 768)"/><path d="M203.765 149.243 203.623 149.243C203.409 149.1 202.91 148.958 202.34 148.958 200.558 148.958 200.13 150.597 200.13 152.093L200.13 157.011 196.496 157.011 196.496 145.893 200.13 145.893 200.13 147.461 200.202 147.461C200.843 146.249 201.77 145.679 202.981 145.679 203.694 145.679 204.122 145.893 204.122 145.893L203.765 149.243Z" transform="matrix(1 0 0 1.0022 1017.18 768)"/><path d="M215.953 152.307 208.042 152.307C208.184 153.947 209.396 154.659 210.893 154.659 212.318 154.659 213.601 154.018 214.242 153.59L215.668 155.443C215.311 155.728 213.815 157.225 210.394 157.225 206.973 157.225 204.478 155.087 204.478 151.452 204.478 147.746 207.186 145.679 210.465 145.679 213.743 145.679 216.024 147.888 216.024 151.096 216.024 151.666 215.953 152.307 215.953 152.307ZM210.322 148.031C208.826 148.031 208.042 149.171 208.042 150.24L212.603 150.24C212.603 149.243 211.89 148.031 210.322 148.031Z" transform="matrix(1 0 0 1.0022 1017.18 768)"/><path d="M227.641 157.011 222.367 157.011 222.367 141.403 227.641 141.403C232.559 141.403 236.194 143.969 236.194 149.171 236.194 154.445 232.559 157.011 227.641 157.011ZM227.855 144.467 226.002 144.467 226.002 153.947 227.855 153.947C230.777 153.947 232.488 152.165 232.488 149.243 232.488 146.32 230.777 144.467 227.855 144.467Z" transform="matrix(1 0 0 1.0022 1017.18 768)"/><path d="M248.88 152.307 240.969 152.307C241.112 153.947 242.323 154.659 243.82 154.659 245.245 154.659 246.528 154.018 247.17 153.59L248.595 155.443C248.239 155.728 246.742 157.225 243.321 157.225 239.9 157.225 237.406 155.087 237.406 151.452 237.406 147.746 240.114 145.679 243.392 145.679 246.671 145.679 248.951 147.888 248.951 151.096 248.951 151.666 248.88 152.307 248.88 152.307ZM243.321 148.031C241.824 148.031 241.04 149.171 241.04 150.24L245.602 150.24C245.53 149.243 244.818 148.031 243.321 148.031Z" transform="matrix(1 0 0 1.0022 1017.18 768)"/><path d="M256.079 143.755C254.867 143.755 254.725 144.61 254.725 145.465L254.725 145.893 257.148 145.893 257.148 148.601 254.725 148.601 254.725 157.011 251.09 157.011 251.09 148.601 249.664 148.601 249.664 145.893 251.09 145.893 251.09 145.251C251.09 142.543 252.373 141.118 255.152 141.118 256.364 141.118 257.504 141.403 257.504 141.403L257.29 143.897C256.934 143.826 256.506 143.755 256.079 143.755ZM260.07 144.61C258.858 144.61 258.003 143.897 258.003 142.757 258.003 141.617 258.858 140.904 260.07 140.904 261.281 140.904 262.137 141.688 262.137 142.757 262.137 143.826 261.281 144.61 260.07 144.61ZM258.288 157.011 258.288 145.893 261.923 145.893 261.923 157.011 258.288 157.011Z" transform="matrix(1 0 0 1.0022 1017.18 768)"/><path d="M271.616 157.011 271.616 151.238C271.616 149.742 271.402 148.672 269.905 148.672 268.337 148.672 267.91 149.955 267.91 151.523L267.91 157.011 264.275 157.011 264.275 145.893 267.91 145.893 267.91 147.532 267.981 147.532C268.622 146.534 269.62 145.75 271.188 145.75 274.395 145.75 275.251 147.817 275.251 150.525L275.251 157.082 271.616 157.082 271.616 157.011Z" transform="matrix(1 0 0 1.0022 1017.18 768)"/><path d="M288.507 152.307 280.596 152.307C280.739 153.947 281.95 154.659 283.447 154.659 284.872 154.659 286.155 154.018 286.797 153.59L288.222 155.443C287.866 155.728 286.369 157.225 282.948 157.225 279.527 157.225 277.033 155.087 277.033 151.452 277.033 147.746 279.741 145.679 283.019 145.679 286.298 145.679 288.578 147.888 288.578 151.096 288.507 151.666 288.507 152.307 288.507 152.307ZM282.877 148.031C281.38 148.031 280.596 149.171 280.596 150.24L285.157 150.24C285.157 149.243 284.373 148.031 282.877 148.031Z" transform="matrix(1 0 0 1.0022 1017.18 768)"/><path d="M298.628 157.011 298.628 155.515 298.556 155.515C297.701 156.655 296.418 157.225 294.922 157.225 291.714 157.225 289.648 154.659 289.648 151.452 289.648 148.245 291.714 145.679 294.922 145.679 296.989 145.679 298.058 146.677 298.414 147.247L298.414 141.474 302.049 141.474 302.049 157.082 298.628 157.011 298.628 157.011ZM295.991 148.53C294.423 148.53 293.354 149.67 293.354 151.452 293.354 153.163 294.423 154.374 295.991 154.374 297.559 154.374 298.556 153.234 298.556 151.452 298.556 149.742 297.487 148.53 295.991 148.53Z" transform="matrix(1 0 0 1.0022 1017.18 768)"/><path d="M316.945 157.011 313.452 157.011 307.679 141.403 311.599 141.403 315.234 152.165 318.869 141.403 322.718 141.403 316.945 157.011Z" transform="matrix(1 0 0 1.0022 1017.18 768)"/><path d="M334.406 152.307 326.495 152.307C326.637 153.947 327.849 154.659 329.346 154.659 330.771 154.659 332.054 154.018 332.696 153.59L334.121 155.443C333.765 155.728 332.268 157.225 328.847 157.225 325.426 157.225 322.931 155.087 322.931 151.452 322.931 147.746 325.64 145.679 328.918 145.679 332.197 145.679 334.477 147.888 334.477 151.096 334.477 151.666 334.406 152.307 334.406 152.307ZM328.776 148.031C327.279 148.031 326.495 149.171 326.495 150.24L331.056 150.24C331.056 149.243 330.344 148.031 328.776 148.031Z" transform="matrix(1 0 0 1.0022 1017.18 768)"/><path d="M343.529 157.011 343.529 151.167C343.529 149.813 343.315 148.601 341.818 148.601 340.322 148.601 339.823 149.884 339.823 151.523L339.823 157.011 336.188 157.011 336.188 141.403 339.823 141.403 339.823 145.109C339.823 146.249 339.823 147.461 339.823 147.461 340.393 146.463 341.462 145.679 343.101 145.679 346.308 145.679 347.164 147.746 347.164 150.454L347.164 157.011 343.529 157.011 343.529 157.011Z" transform="matrix(1 0 0 1.0022 1017.18 768)"/><path d="M351.297 144.61C350.086 144.61 349.231 143.897 349.231 142.757 349.231 141.617 350.086 140.904 351.297 140.904 352.509 140.904 353.364 141.688 353.364 142.757 353.364 143.826 352.509 144.61 351.297 144.61ZM349.516 157.011 349.516 145.893 353.151 145.893 353.151 157.011 349.516 157.011Z" transform="matrix(1 0 0 1.0022 1017.18 768)"/><path d="M360.777 157.296C357.712 157.296 354.932 155.229 354.932 151.523 354.932 147.817 357.783 145.75 360.848 145.75 363.699 145.75 364.982 146.891 364.982 146.891L364.198 149.599C363.913 149.385 362.915 148.601 361.347 148.601 359.779 148.601 358.567 149.67 358.567 151.452 358.567 153.234 359.707 154.303 361.347 154.303 362.986 154.303 364.198 153.234 364.198 153.234L365.053 155.942C364.91 156.013 363.699 157.296 360.777 157.296Z" transform="matrix(1 0 0 1.0022 1017.18 768)"/><path d="M366.55 157.011 366.55 141.403 370.184 141.403 370.184 157.011 366.55 157.011Z" transform="matrix(1 0 0 1.0022 1017.18 768)"/><path d="M383.512 152.307 375.601 152.307C375.744 153.947 376.955 154.659 378.452 154.659 379.877 154.659 381.16 154.018 381.802 153.59L383.227 155.443C382.871 155.728 381.374 157.225 377.953 157.225 374.532 157.225 372.037 155.087 372.037 151.452 372.037 147.746 374.746 145.679 378.024 145.679 381.303 145.679 383.583 147.888 383.583 151.096 383.512 151.666 383.512 152.307 383.512 152.307ZM377.882 148.031C376.385 148.031 375.601 149.171 375.601 150.24L380.162 150.24C380.162 149.243 379.378 148.031 377.882 148.031Z" transform="matrix(1 0 0 1.0022 1017.18 768)"/><path d="M431.407 44.4734 429.411 44.4734 429.411 48.5359 428.485 48.5359 428.485 44.4734 426.489 44.4734 426.489 43.5469 431.407 43.5469 431.407 44.4734 431.407 44.4734Z" transform="matrix(1 0 0 1.0022 1017.18 768)"/><path d="M437.821 48.5359 436.895 48.5359 436.895 45.5425 435.255 48.3934C435.184 48.4646 435.184 48.5359 435.113 48.5359 435.042 48.6072 434.97 48.6072 434.899 48.6072 434.828 48.6072 434.756 48.6072 434.685 48.5359 434.614 48.4646 434.543 48.4646 434.543 48.3934L432.903 45.5425 432.903 48.5359 431.977 48.5359 431.977 43.9033C431.977 43.832 431.977 43.6895 432.048 43.6182 432.119 43.5469 432.191 43.4756 432.262 43.4756 432.333 43.4756 432.333 43.4756 432.404 43.4756 432.476 43.4756 432.476 43.4756 432.547 43.4756 432.618 43.4756 432.618 43.5469 432.69 43.5469 432.761 43.5469 432.761 43.6182 432.761 43.6895L434.828 47.253 436.895 43.6895C436.966 43.6182 437.037 43.5469 437.108 43.4756 437.18 43.4044 437.322 43.4044 437.393 43.4756 437.465 43.4756 437.536 43.5469 437.607 43.6182 437.679 43.6895 437.679 43.7607 437.679 43.9033L437.679 48.5359 437.821 48.5359Z" transform="matrix(1 0 0 1.0022 1017.18 768)"/></g></g></g><path d="M2685.5 195.501C2685.5 181.693 2696.69 170.5 2710.5 170.5L2992.5 170.5C3006.31 170.5 3017.5 181.693 3017.5 195.501L3017.5 295.499C3017.5 309.307 3006.31 320.5 2992.5 320.5L2710.5 320.5C2696.69 320.5 2685.5 309.307 2685.5 295.499Z" stroke="#000000" stroke-width="4.58333" stroke-miterlimit="8" fill="#FFFFFF" fill-rule="evenodd"/><text font-family="Segoe UI,Segoe UI_MSFontService,sans-serif" font-weight="400" font-size="46" transform="matrix(1 0 0 1 2793.08 235)">Other </text><text font-family="Segoe UI,Segoe UI_MSFontService,sans-serif" font-weight="400" font-size="46" transform="matrix(1 0 0 1 2769.89 290)">Services</text><rect x="3020" y="1943" width="75.0002" height="43" fill="#156082"/><path d="M2952.5 1875.5C2952.5 1863.35 2962.35 1853.5 2974.5 1853.5L3392.5 1853.5C3404.65 1853.5 3414.5 1863.35 3414.5 1875.5L3414.5 1963.5C3414.5 1975.65 3404.65 1985.5 3392.5 1985.5L2974.5 1985.5C2962.35 1985.5 2952.5 1975.65 2952.5 1963.5Z" stroke="#000000" stroke-width="4.58333" stroke-miterlimit="8" fill="#FFFFFF" fill-rule="evenodd"/><text font-family="Segoe UI,Segoe UI_MSFontService,sans-serif" font-weight="400" font-size="46" transform="matrix(1 0 0 1 3064.9 1909)">Digital Twin </text><text font-family="Segoe UI,Segoe UI_MSFontService,sans-serif" font-weight="400" font-size="46" transform="matrix(1 0 0 1 3089.54 1964)">Providers</text><path d="M23.0033-1.12827 41.3132-0.199902 41.0811 4.37755 22.7712 3.44919ZM55.0455 0.496373 73.3553 1.42474 73.1232 6.00219 54.8134 5.07383ZM87.0877 2.12101 88.109 2.1728 87.8769 6.75025 86.8556 6.69847ZM26.7684 15.1249 0 0 28.161-12.3398ZM84.1118-9.50293 110.88 5.62198 82.7192 17.9618Z" fill="#006600" transform="matrix(-1 0 0 1 3128.38 239.5)"/><path d="M22.9167-2.29161 41.25-2.29156 41.25 2.29178 22.9167 2.29173ZM55-2.29152 73.3333-2.29147 73.3333 2.29186 55 2.29181ZM87.0833-2.29143 105.417-2.29138 105.417 2.29195 87.0833 2.2919ZM27.5 13.7501 0 0 27.5-13.7499ZM106.945-13.7497 134.445 0.000360892 106.945 13.7503Z" fill="#006600" transform="matrix(-1 0 0 1 3366.94 239.5)"/><path d="M3179.39 396.795 3179.19 378.463 3183.77 378.411 3183.97 396.744ZM3179.03 364.714 3178.82 346.382 3183.41 346.33 3183.61 364.662ZM3178.67 332.633 3178.47 314.441 3183.05 314.389 3183.25 332.581ZM3195.38 392.032 3181.94 419.685 3167.88 392.341ZM3167.06 319.153 3180.5 291.5 3194.56 318.844Z" fill="#006600"/><path d="M3362.5 186.086C3362.5 177.478 3369.48 170.5 3378.09 170.5L3717.91 170.5C3726.52 170.5 3733.5 177.478 3733.5 186.086L3733.5 360.914C3733.5 369.522 3726.52 376.5 3717.91 376.5L3378.09 376.5C3369.48 376.5 3362.5 369.522 3362.5 360.914Z" stroke="#000000" stroke-width="4.58333" stroke-miterlimit="8" fill="#FFFFFF" fill-rule="evenodd"/><text font-family="Segoe UI,Segoe UI_MSFontService,sans-serif" font-weight="400" font-size="46" transform="matrix(1 0 0 1 3435.88 236)">State Store</text><text fill="#00B050" font-family="Aptos,Aptos_MSFontService,sans-serif" font-weight="400" font-size="37" transform="matrix(1 0 0 1 1834.49 953)">List of signals of interest</text><text fill="#00B050" font-family="Aptos,Aptos_MSFontService,sans-serif" font-weight="400" font-size="37" transform="matrix(1 0 0 1 1834.49 1020)">(brakes, airbag, odometer)</text><text fill="#00B050" font-family="Aptos,Aptos_MSFontService,sans-serif" font-weight="400" font-size="37" transform="matrix(1 0 0 1 1834.49 1087)">COVESA Spec</text><rect x="2934.5" y="420.5" width="496" height="157" stroke="#000000" stroke-width="6.875" stroke-miterlimit="8" fill="none"/><text font-family="Segoe UI,Segoe UI_MSFontService,sans-serif" font-weight="400" font-size="50" transform="matrix(1 0 0 1 3034.18 485)">MQTT Broker</text></g></svg>